<?xml version="1.0" encoding="UTF-8"?>
<!-- Do not edit this file with editors other than draw.io -->
<!DOCTYPE svg PUBLIC "-//W3C//DTD SVG 1.1//EN" "http://www.w3.org/Graphics/SVG/1.1/DTD/svg11.dtd">
<svg xmlns="http://www.w3.org/2000/svg" xmlns:xlink="http://www.w3.org/1999/xlink" version="1.1" width="2511px" height="1791px" viewBox="-0.5 -0.5 2511 1791" content="&lt;mxfile host=&quot;app.diagrams.net&quot; agent=&quot;Mozilla/5.0 (Macintosh; Intel Mac OS X 10_15_7) AppleWebKit/537.36 (KHTML, like Gecko) Chrome/127.0.0.0 Safari/537.36&quot; version=&quot;24.7.7&quot;&gt;&#10;  &lt;diagram name=&quot;Page-1&quot; id=&quot;L95FdTZpybHTbwJrQIx_&quot;&gt;&#10;    &lt;mxGraphModel dx=&quot;2856&quot; dy=&quot;2812&quot; grid=&quot;1&quot; gridSize=&quot;10&quot; guides=&quot;1&quot; tooltips=&quot;1&quot; connect=&quot;1&quot; arrows=&quot;1&quot; fold=&quot;1&quot; page=&quot;0&quot; pageScale=&quot;1&quot; pageWidth=&quot;827&quot; pageHeight=&quot;583&quot; math=&quot;0&quot; shadow=&quot;0&quot;&gt;&#10;      &lt;root&gt;&#10;        &lt;mxCell id=&quot;0&quot; /&gt;&#10;        &lt;mxCell id=&quot;1&quot; parent=&quot;0&quot; /&gt;&#10;        &lt;mxCell id=&quot;-6ptDTptwhBMWIp2i-m9-1&quot; value=&quot;&quot; style=&quot;sketch=0;points=[[0,0,0],[0.25,0,0],[0.5,0,0],[0.75,0,0],[1,0,0],[0,1,0],[0.25,1,0],[0.5,1,0],[0.75,1,0],[1,1,0],[0,0.25,0],[0,0.5,0],[0,0.75,0],[1,0.25,0],[1,0.5,0],[1,0.75,0]];outlineConnect=0;fontColor=#232F3E;fillColor=#E7157B;strokeColor=#ffffff;dashed=0;verticalLabelPosition=bottom;verticalAlign=top;align=center;html=1;fontSize=12;fontStyle=0;aspect=fixed;shape=mxgraph.aws4.resourceIcon;resIcon=mxgraph.aws4.api_gateway;&quot; vertex=&quot;1&quot; parent=&quot;1&quot;&gt;&#10;          &lt;mxGeometry x=&quot;80&quot; y=&quot;-465.26&quot; width=&quot;120&quot; height=&quot;120&quot; as=&quot;geometry&quot; /&gt;&#10;        &lt;/mxCell&gt;&#10;        &lt;mxCell id=&quot;-6ptDTptwhBMWIp2i-m9-3&quot; value=&quot;&quot; style=&quot;outlineConnect=0;dashed=0;verticalLabelPosition=bottom;verticalAlign=top;align=center;html=1;shape=mxgraph.aws3.application_load_balancer;fillColor=#F58534;gradientColor=none;direction=north;&quot; vertex=&quot;1&quot; parent=&quot;1&quot;&gt;&#10;          &lt;mxGeometry x=&quot;-320&quot; y=&quot;14.74&quot; width=&quot;120&quot; height=&quot;120&quot; as=&quot;geometry&quot; /&gt;&#10;        &lt;/mxCell&gt;&#10;        &lt;mxCell id=&quot;-6ptDTptwhBMWIp2i-m9-9&quot; value=&quot;&quot; style=&quot;sketch=0;points=[[0,0,0],[0.25,0,0],[0.5,0,0],[0.75,0,0],[1,0,0],[0,1,0],[0.25,1,0],[0.5,1,0],[0.75,1,0],[1,1,0],[0,0.25,0],[0,0.5,0],[0,0.75,0],[1,0.25,0],[1,0.5,0],[1,0.75,0]];outlineConnect=0;fontColor=#232F3E;fillColor=#E7157B;strokeColor=#ffffff;dashed=0;verticalLabelPosition=bottom;verticalAlign=top;align=center;html=1;fontSize=12;fontStyle=0;aspect=fixed;shape=mxgraph.aws4.resourceIcon;resIcon=mxgraph.aws4.api_gateway;&quot; vertex=&quot;1&quot; parent=&quot;1&quot;&gt;&#10;          &lt;mxGeometry x=&quot;80&quot; y=&quot;14.74&quot; width=&quot;120&quot; height=&quot;120&quot; as=&quot;geometry&quot; /&gt;&#10;        &lt;/mxCell&gt;&#10;        &lt;mxCell id=&quot;-6ptDTptwhBMWIp2i-m9-10&quot; value=&quot;&quot; style=&quot;sketch=0;points=[[0,0,0],[0.25,0,0],[0.5,0,0],[0.75,0,0],[1,0,0],[0,1,0],[0.25,1,0],[0.5,1,0],[0.75,1,0],[1,1,0],[0,0.25,0],[0,0.5,0],[0,0.75,0],[1,0.25,0],[1,0.5,0],[1,0.75,0]];outlineConnect=0;fontColor=#232F3E;fillColor=#E7157B;strokeColor=#ffffff;dashed=0;verticalLabelPosition=bottom;verticalAlign=top;align=center;html=1;fontSize=12;fontStyle=0;aspect=fixed;shape=mxgraph.aws4.resourceIcon;resIcon=mxgraph.aws4.api_gateway;&quot; vertex=&quot;1&quot; parent=&quot;1&quot;&gt;&#10;          &lt;mxGeometry x=&quot;80&quot; y=&quot;494.74&quot; width=&quot;120&quot; height=&quot;120&quot; as=&quot;geometry&quot; /&gt;&#10;        &lt;/mxCell&gt;&#10;        &lt;mxCell id=&quot;-6ptDTptwhBMWIp2i-m9-16&quot; value=&quot;&quot; style=&quot;group&quot; vertex=&quot;1&quot; connectable=&quot;0&quot; parent=&quot;1&quot;&gt;&#10;          &lt;mxGeometry x=&quot;480&quot; y=&quot;-600&quot; width=&quot;160&quot; height=&quot;389.47&quot; as=&quot;geometry&quot; /&gt;&#10;        &lt;/mxCell&gt;&#10;        &lt;mxCell id=&quot;-6ptDTptwhBMWIp2i-m9-15&quot; value=&quot;&quot; style=&quot;rounded=0;whiteSpace=wrap;html=1;fillColor=none;dashed=1;aspect=fixed;dashPattern=12 12;&quot; vertex=&quot;1&quot; parent=&quot;-6ptDTptwhBMWIp2i-m9-16&quot;&gt;&#10;          &lt;mxGeometry width=&quot;160&quot; height=&quot;389.47&quot; as=&quot;geometry&quot; /&gt;&#10;        &lt;/mxCell&gt;&#10;        &lt;mxCell id=&quot;-6ptDTptwhBMWIp2i-m9-11&quot; value=&quot;&quot; style=&quot;sketch=0;points=[[0,0,0],[0.25,0,0],[0.5,0,0],[0.75,0,0],[1,0,0],[0,1,0],[0.25,1,0],[0.5,1,0],[0.75,1,0],[1,1,0],[0,0.25,0],[0,0.5,0],[0,0.75,0],[1,0.25,0],[1,0.5,0],[1,0.75,0]];outlineConnect=0;fontColor=#232F3E;fillColor=#ED7100;strokeColor=#ffffff;dashed=0;verticalLabelPosition=bottom;verticalAlign=top;align=center;html=1;fontSize=12;fontStyle=0;aspect=fixed;shape=mxgraph.aws4.resourceIcon;resIcon=mxgraph.aws4.ec2;&quot; vertex=&quot;1&quot; parent=&quot;-6ptDTptwhBMWIp2i-m9-16&quot;&gt;&#10;          &lt;mxGeometry x=&quot;40&quot; y=&quot;80&quot; width=&quot;80&quot; height=&quot;80&quot; as=&quot;geometry&quot; /&gt;&#10;        &lt;/mxCell&gt;&#10;        &lt;mxCell id=&quot;-6ptDTptwhBMWIp2i-m9-13&quot; value=&quot;&quot; style=&quot;sketch=0;outlineConnect=0;fontColor=#232F3E;gradientColor=none;fillColor=#ED7100;strokeColor=none;dashed=0;verticalLabelPosition=bottom;verticalAlign=top;align=center;html=1;fontSize=12;fontStyle=0;aspect=fixed;pointerEvents=1;shape=mxgraph.aws4.auto_scaling2;&quot; vertex=&quot;1&quot; parent=&quot;-6ptDTptwhBMWIp2i-m9-16&quot;&gt;&#10;          &lt;mxGeometry x=&quot;57&quot; y=&quot;20&quot; width=&quot;48&quot; height=&quot;48&quot; as=&quot;geometry&quot; /&gt;&#10;        &lt;/mxCell&gt;&#10;        &lt;mxCell id=&quot;-6ptDTptwhBMWIp2i-m9-12&quot; value=&quot;&quot; style=&quot;sketch=0;points=[[0,0,0],[0.25,0,0],[0.5,0,0],[0.75,0,0],[1,0,0],[0,1,0],[0.25,1,0],[0.5,1,0],[0.75,1,0],[1,1,0],[0,0.25,0],[0,0.5,0],[0,0.75,0],[1,0.25,0],[1,0.5,0],[1,0.75,0]];outlineConnect=0;fontColor=#232F3E;fillColor=#ED7100;strokeColor=#ffffff;dashed=0;verticalLabelPosition=bottom;verticalAlign=top;align=center;html=1;fontSize=12;fontStyle=0;aspect=fixed;shape=mxgraph.aws4.resourceIcon;resIcon=mxgraph.aws4.ec2;&quot; vertex=&quot;1&quot; parent=&quot;-6ptDTptwhBMWIp2i-m9-16&quot;&gt;&#10;          &lt;mxGeometry x=&quot;42&quot; y=&quot;181&quot; width=&quot;78&quot; height=&quot;78&quot; as=&quot;geometry&quot; /&gt;&#10;        &lt;/mxCell&gt;&#10;        &lt;mxCell id=&quot;-6ptDTptwhBMWIp2i-m9-14&quot; value=&quot;&quot; style=&quot;sketch=0;points=[[0,0,0],[0.25,0,0],[0.5,0,0],[0.75,0,0],[1,0,0],[0,1,0],[0.25,1,0],[0.5,1,0],[0.75,1,0],[1,1,0],[0,0.25,0],[0,0.5,0],[0,0.75,0],[1,0.25,0],[1,0.5,0],[1,0.75,0]];outlineConnect=0;fontColor=#232F3E;fillColor=#ED7100;strokeColor=#ffffff;dashed=0;verticalLabelPosition=bottom;verticalAlign=top;align=center;html=1;fontSize=12;fontStyle=0;aspect=fixed;shape=mxgraph.aws4.resourceIcon;resIcon=mxgraph.aws4.ec2;&quot; vertex=&quot;1&quot; parent=&quot;-6ptDTptwhBMWIp2i-m9-16&quot;&gt;&#10;          &lt;mxGeometry x=&quot;42&quot; y=&quot;280&quot; width=&quot;78&quot; height=&quot;78&quot; as=&quot;geometry&quot; /&gt;&#10;        &lt;/mxCell&gt;&#10;        &lt;mxCell id=&quot;-6ptDTptwhBMWIp2i-m9-17&quot; value=&quot;&quot; style=&quot;group&quot; vertex=&quot;1&quot; connectable=&quot;0&quot; parent=&quot;1&quot;&gt;&#10;          &lt;mxGeometry x=&quot;480&quot; y=&quot;-120&quot; width=&quot;160&quot; height=&quot;389.47&quot; as=&quot;geometry&quot; /&gt;&#10;        &lt;/mxCell&gt;&#10;        &lt;mxCell id=&quot;-6ptDTptwhBMWIp2i-m9-18&quot; value=&quot;&quot; style=&quot;rounded=0;whiteSpace=wrap;html=1;fillColor=none;dashed=1;aspect=fixed;dashPattern=12 12;&quot; vertex=&quot;1&quot; parent=&quot;-6ptDTptwhBMWIp2i-m9-17&quot;&gt;&#10;          &lt;mxGeometry width=&quot;160&quot; height=&quot;389.47&quot; as=&quot;geometry&quot; /&gt;&#10;        &lt;/mxCell&gt;&#10;        &lt;mxCell id=&quot;-6ptDTptwhBMWIp2i-m9-19&quot; value=&quot;&quot; style=&quot;sketch=0;points=[[0,0,0],[0.25,0,0],[0.5,0,0],[0.75,0,0],[1,0,0],[0,1,0],[0.25,1,0],[0.5,1,0],[0.75,1,0],[1,1,0],[0,0.25,0],[0,0.5,0],[0,0.75,0],[1,0.25,0],[1,0.5,0],[1,0.75,0]];outlineConnect=0;fontColor=#232F3E;fillColor=#ED7100;strokeColor=#ffffff;dashed=0;verticalLabelPosition=bottom;verticalAlign=top;align=center;html=1;fontSize=12;fontStyle=0;aspect=fixed;shape=mxgraph.aws4.resourceIcon;resIcon=mxgraph.aws4.ec2;&quot; vertex=&quot;1&quot; parent=&quot;-6ptDTptwhBMWIp2i-m9-17&quot;&gt;&#10;          &lt;mxGeometry x=&quot;40&quot; y=&quot;80&quot; width=&quot;80&quot; height=&quot;80&quot; as=&quot;geometry&quot; /&gt;&#10;        &lt;/mxCell&gt;&#10;        &lt;mxCell id=&quot;-6ptDTptwhBMWIp2i-m9-20&quot; value=&quot;&quot; style=&quot;sketch=0;outlineConnect=0;fontColor=#232F3E;gradientColor=none;fillColor=#ED7100;strokeColor=none;dashed=0;verticalLabelPosition=bottom;verticalAlign=top;align=center;html=1;fontSize=12;fontStyle=0;aspect=fixed;pointerEvents=1;shape=mxgraph.aws4.auto_scaling2;&quot; vertex=&quot;1&quot; parent=&quot;-6ptDTptwhBMWIp2i-m9-17&quot;&gt;&#10;          &lt;mxGeometry x=&quot;57&quot; y=&quot;20&quot; width=&quot;48&quot; height=&quot;48&quot; as=&quot;geometry&quot; /&gt;&#10;        &lt;/mxCell&gt;&#10;        &lt;mxCell id=&quot;-6ptDTptwhBMWIp2i-m9-21&quot; value=&quot;&quot; style=&quot;sketch=0;points=[[0,0,0],[0.25,0,0],[0.5,0,0],[0.75,0,0],[1,0,0],[0,1,0],[0.25,1,0],[0.5,1,0],[0.75,1,0],[1,1,0],[0,0.25,0],[0,0.5,0],[0,0.75,0],[1,0.25,0],[1,0.5,0],[1,0.75,0]];outlineConnect=0;fontColor=#232F3E;fillColor=#ED7100;strokeColor=#ffffff;dashed=0;verticalLabelPosition=bottom;verticalAlign=top;align=center;html=1;fontSize=12;fontStyle=0;aspect=fixed;shape=mxgraph.aws4.resourceIcon;resIcon=mxgraph.aws4.ec2;&quot; vertex=&quot;1&quot; parent=&quot;-6ptDTptwhBMWIp2i-m9-17&quot;&gt;&#10;          &lt;mxGeometry x=&quot;42&quot; y=&quot;181&quot; width=&quot;78&quot; height=&quot;78&quot; as=&quot;geometry&quot; /&gt;&#10;        &lt;/mxCell&gt;&#10;        &lt;mxCell id=&quot;-6ptDTptwhBMWIp2i-m9-22&quot; value=&quot;&quot; style=&quot;sketch=0;points=[[0,0,0],[0.25,0,0],[0.5,0,0],[0.75,0,0],[1,0,0],[0,1,0],[0.25,1,0],[0.5,1,0],[0.75,1,0],[1,1,0],[0,0.25,0],[0,0.5,0],[0,0.75,0],[1,0.25,0],[1,0.5,0],[1,0.75,0]];outlineConnect=0;fontColor=#232F3E;fillColor=#ED7100;strokeColor=#ffffff;dashed=0;verticalLabelPosition=bottom;verticalAlign=top;align=center;html=1;fontSize=12;fontStyle=0;aspect=fixed;shape=mxgraph.aws4.resourceIcon;resIcon=mxgraph.aws4.ec2;&quot; vertex=&quot;1&quot; parent=&quot;-6ptDTptwhBMWIp2i-m9-17&quot;&gt;&#10;          &lt;mxGeometry x=&quot;42&quot; y=&quot;280&quot; width=&quot;78&quot; height=&quot;78&quot; as=&quot;geometry&quot; /&gt;&#10;        &lt;/mxCell&gt;&#10;        &lt;mxCell id=&quot;-6ptDTptwhBMWIp2i-m9-23&quot; value=&quot;&quot; style=&quot;group&quot; vertex=&quot;1&quot; connectable=&quot;0&quot; parent=&quot;1&quot;&gt;&#10;          &lt;mxGeometry x=&quot;480&quot; y=&quot;360&quot; width=&quot;160&quot; height=&quot;389.47&quot; as=&quot;geometry&quot; /&gt;&#10;        &lt;/mxCell&gt;&#10;        &lt;mxCell id=&quot;-6ptDTptwhBMWIp2i-m9-24&quot; value=&quot;&quot; style=&quot;rounded=0;whiteSpace=wrap;html=1;fillColor=none;dashed=1;aspect=fixed;dashPattern=12 12;&quot; vertex=&quot;1&quot; parent=&quot;-6ptDTptwhBMWIp2i-m9-23&quot;&gt;&#10;          &lt;mxGeometry width=&quot;160&quot; height=&quot;389.47&quot; as=&quot;geometry&quot; /&gt;&#10;        &lt;/mxCell&gt;&#10;        &lt;mxCell id=&quot;-6ptDTptwhBMWIp2i-m9-25&quot; value=&quot;&quot; style=&quot;sketch=0;points=[[0,0,0],[0.25,0,0],[0.5,0,0],[0.75,0,0],[1,0,0],[0,1,0],[0.25,1,0],[0.5,1,0],[0.75,1,0],[1,1,0],[0,0.25,0],[0,0.5,0],[0,0.75,0],[1,0.25,0],[1,0.5,0],[1,0.75,0]];outlineConnect=0;fontColor=#232F3E;fillColor=#ED7100;strokeColor=#ffffff;dashed=0;verticalLabelPosition=bottom;verticalAlign=top;align=center;html=1;fontSize=12;fontStyle=0;aspect=fixed;shape=mxgraph.aws4.resourceIcon;resIcon=mxgraph.aws4.ec2;&quot; vertex=&quot;1&quot; parent=&quot;-6ptDTptwhBMWIp2i-m9-23&quot;&gt;&#10;          &lt;mxGeometry x=&quot;40&quot; y=&quot;80&quot; width=&quot;80&quot; height=&quot;80&quot; as=&quot;geometry&quot; /&gt;&#10;        &lt;/mxCell&gt;&#10;        &lt;mxCell id=&quot;-6ptDTptwhBMWIp2i-m9-26&quot; value=&quot;&quot; style=&quot;sketch=0;outlineConnect=0;fontColor=#232F3E;gradientColor=none;fillColor=#ED7100;strokeColor=none;dashed=0;verticalLabelPosition=bottom;verticalAlign=top;align=center;html=1;fontSize=12;fontStyle=0;aspect=fixed;pointerEvents=1;shape=mxgraph.aws4.auto_scaling2;&quot; vertex=&quot;1&quot; parent=&quot;-6ptDTptwhBMWIp2i-m9-23&quot;&gt;&#10;          &lt;mxGeometry x=&quot;57&quot; y=&quot;20&quot; width=&quot;48&quot; height=&quot;48&quot; as=&quot;geometry&quot; /&gt;&#10;        &lt;/mxCell&gt;&#10;        &lt;mxCell id=&quot;-6ptDTptwhBMWIp2i-m9-27&quot; value=&quot;&quot; style=&quot;sketch=0;points=[[0,0,0],[0.25,0,0],[0.5,0,0],[0.75,0,0],[1,0,0],[0,1,0],[0.25,1,0],[0.5,1,0],[0.75,1,0],[1,1,0],[0,0.25,0],[0,0.5,0],[0,0.75,0],[1,0.25,0],[1,0.5,0],[1,0.75,0]];outlineConnect=0;fontColor=#232F3E;fillColor=#ED7100;strokeColor=#ffffff;dashed=0;verticalLabelPosition=bottom;verticalAlign=top;align=center;html=1;fontSize=12;fontStyle=0;aspect=fixed;shape=mxgraph.aws4.resourceIcon;resIcon=mxgraph.aws4.ec2;&quot; vertex=&quot;1&quot; parent=&quot;-6ptDTptwhBMWIp2i-m9-23&quot;&gt;&#10;          &lt;mxGeometry x=&quot;42&quot; y=&quot;181&quot; width=&quot;78&quot; height=&quot;78&quot; as=&quot;geometry&quot; /&gt;&#10;        &lt;/mxCell&gt;&#10;        &lt;mxCell id=&quot;-6ptDTptwhBMWIp2i-m9-28&quot; value=&quot;&quot; style=&quot;sketch=0;points=[[0,0,0],[0.25,0,0],[0.5,0,0],[0.75,0,0],[1,0,0],[0,1,0],[0.25,1,0],[0.5,1,0],[0.75,1,0],[1,1,0],[0,0.25,0],[0,0.5,0],[0,0.75,0],[1,0.25,0],[1,0.5,0],[1,0.75,0]];outlineConnect=0;fontColor=#232F3E;fillColor=#ED7100;strokeColor=#ffffff;dashed=0;verticalLabelPosition=bottom;verticalAlign=top;align=center;html=1;fontSize=12;fontStyle=0;aspect=fixed;shape=mxgraph.aws4.resourceIcon;resIcon=mxgraph.aws4.ec2;&quot; vertex=&quot;1&quot; parent=&quot;-6ptDTptwhBMWIp2i-m9-23&quot;&gt;&#10;          &lt;mxGeometry x=&quot;42&quot; y=&quot;280&quot; width=&quot;78&quot; height=&quot;78&quot; as=&quot;geometry&quot; /&gt;&#10;        &lt;/mxCell&gt;&#10;        &lt;mxCell id=&quot;-6ptDTptwhBMWIp2i-m9-75&quot; value=&quot;&quot; style=&quot;group&quot; vertex=&quot;1&quot; connectable=&quot;0&quot; parent=&quot;1&quot;&gt;&#10;          &lt;mxGeometry x=&quot;1120&quot; y=&quot;-1040&quot; width=&quot;387.5&quot; height=&quot;291.16&quot; as=&quot;geometry&quot; /&gt;&#10;        &lt;/mxCell&gt;&#10;        &lt;mxCell id=&quot;-6ptDTptwhBMWIp2i-m9-60&quot; value=&quot;&quot; style=&quot;rounded=0;whiteSpace=wrap;html=1;fillColor=none;dashed=1;dashPattern=12 12;aspect=fixed;&quot; vertex=&quot;1&quot; parent=&quot;-6ptDTptwhBMWIp2i-m9-75&quot;&gt;&#10;          &lt;mxGeometry width=&quot;387.5&quot; height=&quot;291.16&quot; as=&quot;geometry&quot; /&gt;&#10;        &lt;/mxCell&gt;&#10;        &lt;mxCell id=&quot;-6ptDTptwhBMWIp2i-m9-50&quot; value=&quot;&quot; style=&quot;group;aspect=fixed;&quot; vertex=&quot;1&quot; connectable=&quot;0&quot; parent=&quot;-6ptDTptwhBMWIp2i-m9-75&quot;&gt;&#10;          &lt;mxGeometry x=&quot;247.49342541436454&quot; y=&quot;18.228823529411784&quot; width=&quot;85.29338798788096&quot; height=&quot;110.88140438424524&quot; as=&quot;geometry&quot; /&gt;&#10;        &lt;/mxCell&gt;&#10;        &lt;mxCell id=&quot;-6ptDTptwhBMWIp2i-m9-48&quot; value=&quot;&quot; style=&quot;shape=cylinder3;whiteSpace=wrap;html=1;boundedLbl=1;backgroundOutline=1;size=15;aspect=fixed;&quot; vertex=&quot;1&quot; parent=&quot;-6ptDTptwhBMWIp2i-m9-50&quot;&gt;&#10;          &lt;mxGeometry width=&quot;85.29338798788096&quot; height=&quot;110.88140438424524&quot; as=&quot;geometry&quot; /&gt;&#10;        &lt;/mxCell&gt;&#10;        &lt;mxCell id=&quot;-6ptDTptwhBMWIp2i-m9-34&quot; value=&quot;&quot; style=&quot;shape=image;verticalLabelPosition=bottom;labelBackgroundColor=default;verticalAlign=top;aspect=fixed;imageAspect=0;image=https://static-00.iconduck.com/assets.00/postgresql-plain-wordmark-icon-2048x2042-up54u54l.png;&quot; vertex=&quot;1&quot; parent=&quot;-6ptDTptwhBMWIp2i-m9-50&quot;&gt;&#10;          &lt;mxGeometry x=&quot;8.418457394403758&quot; y=&quot;34.11735519515238&quot; width=&quot;68.45647319907326&quot; height=&quot;68.23471039030476&quot; as=&quot;geometry&quot; /&gt;&#10;        &lt;/mxCell&gt;&#10;        &lt;mxCell id=&quot;-6ptDTptwhBMWIp2i-m9-51&quot; value=&quot;&quot; style=&quot;group;aspect=fixed;&quot; vertex=&quot;1&quot; connectable=&quot;0&quot; parent=&quot;-6ptDTptwhBMWIp2i-m9-75&quot;&gt;&#10;          &lt;mxGeometry x=&quot;47.49889502762426&quot; y=&quot;90.13941176470587&quot; width=&quot;85.29338798788096&quot; height=&quot;110.88140438424524&quot; as=&quot;geometry&quot; /&gt;&#10;        &lt;/mxCell&gt;&#10;        &lt;mxCell id=&quot;-6ptDTptwhBMWIp2i-m9-52&quot; value=&quot;&quot; style=&quot;shape=cylinder3;whiteSpace=wrap;html=1;boundedLbl=1;backgroundOutline=1;size=15;aspect=fixed;&quot; vertex=&quot;1&quot; parent=&quot;-6ptDTptwhBMWIp2i-m9-51&quot;&gt;&#10;          &lt;mxGeometry width=&quot;85.29338798788096&quot; height=&quot;110.88140438424524&quot; as=&quot;geometry&quot; /&gt;&#10;        &lt;/mxCell&gt;&#10;        &lt;mxCell id=&quot;-6ptDTptwhBMWIp2i-m9-53&quot; value=&quot;&quot; style=&quot;shape=image;verticalLabelPosition=bottom;labelBackgroundColor=default;verticalAlign=top;aspect=fixed;imageAspect=0;image=https://static-00.iconduck.com/assets.00/postgresql-plain-wordmark-icon-2048x2042-up54u54l.png;&quot; vertex=&quot;1&quot; parent=&quot;-6ptDTptwhBMWIp2i-m9-51&quot;&gt;&#10;          &lt;mxGeometry x=&quot;8.418457394403758&quot; y=&quot;34.11735519515238&quot; width=&quot;68.45647319907326&quot; height=&quot;68.23471039030476&quot; as=&quot;geometry&quot; /&gt;&#10;        &lt;/mxCell&gt;&#10;        &lt;mxCell id=&quot;-6ptDTptwhBMWIp2i-m9-57&quot; value=&quot;&quot; style=&quot;group;aspect=fixed;&quot; vertex=&quot;1&quot; connectable=&quot;0&quot; parent=&quot;-6ptDTptwhBMWIp2i-m9-75&quot;&gt;&#10;          &lt;mxGeometry x=&quot;247.49795580110504&quot; y=&quot;165.57941176470587&quot; width=&quot;85.29338798788096&quot; height=&quot;110.88140438424524&quot; as=&quot;geometry&quot; /&gt;&#10;        &lt;/mxCell&gt;&#10;        &lt;mxCell id=&quot;-6ptDTptwhBMWIp2i-m9-58&quot; value=&quot;&quot; style=&quot;shape=cylinder3;whiteSpace=wrap;html=1;boundedLbl=1;backgroundOutline=1;size=15;aspect=fixed;&quot; vertex=&quot;1&quot; parent=&quot;-6ptDTptwhBMWIp2i-m9-57&quot;&gt;&#10;          &lt;mxGeometry width=&quot;85.29338798788096&quot; height=&quot;110.88140438424524&quot; as=&quot;geometry&quot; /&gt;&#10;        &lt;/mxCell&gt;&#10;        &lt;mxCell id=&quot;-6ptDTptwhBMWIp2i-m9-59&quot; value=&quot;&quot; style=&quot;shape=image;verticalLabelPosition=bottom;labelBackgroundColor=default;verticalAlign=top;aspect=fixed;imageAspect=0;image=https://static-00.iconduck.com/assets.00/postgresql-plain-wordmark-icon-2048x2042-up54u54l.png;&quot; vertex=&quot;1&quot; parent=&quot;-6ptDTptwhBMWIp2i-m9-57&quot;&gt;&#10;          &lt;mxGeometry x=&quot;8.418457394403758&quot; y=&quot;34.11735519515238&quot; width=&quot;68.45647319907326&quot; height=&quot;68.23471039030476&quot; as=&quot;geometry&quot; /&gt;&#10;        &lt;/mxCell&gt;&#10;        &lt;mxCell id=&quot;-6ptDTptwhBMWIp2i-m9-76&quot; value=&quot;&quot; style=&quot;group&quot; vertex=&quot;1&quot; connectable=&quot;0&quot; parent=&quot;1&quot;&gt;&#10;          &lt;mxGeometry x=&quot;1120&quot; y=&quot;-680&quot; width=&quot;387.5&quot; height=&quot;291.16&quot; as=&quot;geometry&quot; /&gt;&#10;        &lt;/mxCell&gt;&#10;        &lt;mxCell id=&quot;-6ptDTptwhBMWIp2i-m9-77&quot; value=&quot;&quot; style=&quot;rounded=0;whiteSpace=wrap;html=1;fillColor=none;dashed=1;dashPattern=12 12;aspect=fixed;&quot; vertex=&quot;1&quot; parent=&quot;-6ptDTptwhBMWIp2i-m9-76&quot;&gt;&#10;          &lt;mxGeometry width=&quot;387.5&quot; height=&quot;291.16&quot; as=&quot;geometry&quot; /&gt;&#10;        &lt;/mxCell&gt;&#10;        &lt;mxCell id=&quot;-6ptDTptwhBMWIp2i-m9-78&quot; value=&quot;&quot; style=&quot;group;aspect=fixed;&quot; vertex=&quot;1&quot; connectable=&quot;0&quot; parent=&quot;-6ptDTptwhBMWIp2i-m9-76&quot;&gt;&#10;          &lt;mxGeometry x=&quot;247.49342541436454&quot; y=&quot;18.228823529411784&quot; width=&quot;85.29338798788096&quot; height=&quot;110.88140438424524&quot; as=&quot;geometry&quot; /&gt;&#10;        &lt;/mxCell&gt;&#10;        &lt;mxCell id=&quot;-6ptDTptwhBMWIp2i-m9-79&quot; value=&quot;&quot; style=&quot;shape=cylinder3;whiteSpace=wrap;html=1;boundedLbl=1;backgroundOutline=1;size=15;aspect=fixed;&quot; vertex=&quot;1&quot; parent=&quot;-6ptDTptwhBMWIp2i-m9-78&quot;&gt;&#10;          &lt;mxGeometry width=&quot;85.29338798788096&quot; height=&quot;110.88140438424524&quot; as=&quot;geometry&quot; /&gt;&#10;        &lt;/mxCell&gt;&#10;        &lt;mxCell id=&quot;-6ptDTptwhBMWIp2i-m9-80&quot; value=&quot;&quot; style=&quot;shape=image;verticalLabelPosition=bottom;labelBackgroundColor=default;verticalAlign=top;aspect=fixed;imageAspect=0;image=https://static-00.iconduck.com/assets.00/postgresql-plain-wordmark-icon-2048x2042-up54u54l.png;&quot; vertex=&quot;1&quot; parent=&quot;-6ptDTptwhBMWIp2i-m9-78&quot;&gt;&#10;          &lt;mxGeometry x=&quot;8.418457394403758&quot; y=&quot;34.11735519515238&quot; width=&quot;68.45647319907326&quot; height=&quot;68.23471039030476&quot; as=&quot;geometry&quot; /&gt;&#10;        &lt;/mxCell&gt;&#10;        &lt;mxCell id=&quot;-6ptDTptwhBMWIp2i-m9-81&quot; value=&quot;&quot; style=&quot;group;aspect=fixed;&quot; vertex=&quot;1&quot; connectable=&quot;0&quot; parent=&quot;-6ptDTptwhBMWIp2i-m9-76&quot;&gt;&#10;          &lt;mxGeometry x=&quot;47.49889502762426&quot; y=&quot;90.13941176470587&quot; width=&quot;85.29338798788096&quot; height=&quot;110.88140438424524&quot; as=&quot;geometry&quot; /&gt;&#10;        &lt;/mxCell&gt;&#10;        &lt;mxCell id=&quot;-6ptDTptwhBMWIp2i-m9-82&quot; value=&quot;&quot; style=&quot;shape=cylinder3;whiteSpace=wrap;html=1;boundedLbl=1;backgroundOutline=1;size=15;aspect=fixed;&quot; vertex=&quot;1&quot; parent=&quot;-6ptDTptwhBMWIp2i-m9-81&quot;&gt;&#10;          &lt;mxGeometry width=&quot;85.29338798788096&quot; height=&quot;110.88140438424524&quot; as=&quot;geometry&quot; /&gt;&#10;        &lt;/mxCell&gt;&#10;        &lt;mxCell id=&quot;-6ptDTptwhBMWIp2i-m9-83&quot; value=&quot;&quot; style=&quot;shape=image;verticalLabelPosition=bottom;labelBackgroundColor=default;verticalAlign=top;aspect=fixed;imageAspect=0;image=https://static-00.iconduck.com/assets.00/postgresql-plain-wordmark-icon-2048x2042-up54u54l.png;&quot; vertex=&quot;1&quot; parent=&quot;-6ptDTptwhBMWIp2i-m9-81&quot;&gt;&#10;          &lt;mxGeometry x=&quot;8.418457394403758&quot; y=&quot;34.11735519515238&quot; width=&quot;68.45647319907326&quot; height=&quot;68.23471039030476&quot; as=&quot;geometry&quot; /&gt;&#10;        &lt;/mxCell&gt;&#10;        &lt;mxCell id=&quot;-6ptDTptwhBMWIp2i-m9-84&quot; value=&quot;&quot; style=&quot;group;aspect=fixed;&quot; vertex=&quot;1&quot; connectable=&quot;0&quot; parent=&quot;-6ptDTptwhBMWIp2i-m9-76&quot;&gt;&#10;          &lt;mxGeometry x=&quot;247.49795580110504&quot; y=&quot;165.57941176470587&quot; width=&quot;85.29338798788096&quot; height=&quot;110.88140438424524&quot; as=&quot;geometry&quot; /&gt;&#10;        &lt;/mxCell&gt;&#10;        &lt;mxCell id=&quot;-6ptDTptwhBMWIp2i-m9-85&quot; value=&quot;&quot; style=&quot;shape=cylinder3;whiteSpace=wrap;html=1;boundedLbl=1;backgroundOutline=1;size=15;aspect=fixed;&quot; vertex=&quot;1&quot; parent=&quot;-6ptDTptwhBMWIp2i-m9-84&quot;&gt;&#10;          &lt;mxGeometry width=&quot;85.29338798788096&quot; height=&quot;110.88140438424524&quot; as=&quot;geometry&quot; /&gt;&#10;        &lt;/mxCell&gt;&#10;        &lt;mxCell id=&quot;-6ptDTptwhBMWIp2i-m9-86&quot; value=&quot;&quot; style=&quot;shape=image;verticalLabelPosition=bottom;labelBackgroundColor=default;verticalAlign=top;aspect=fixed;imageAspect=0;image=https://static-00.iconduck.com/assets.00/postgresql-plain-wordmark-icon-2048x2042-up54u54l.png;&quot; vertex=&quot;1&quot; parent=&quot;-6ptDTptwhBMWIp2i-m9-84&quot;&gt;&#10;          &lt;mxGeometry x=&quot;8.418457394403758&quot; y=&quot;34.11735519515238&quot; width=&quot;68.45647319907326&quot; height=&quot;68.23471039030476&quot; as=&quot;geometry&quot; /&gt;&#10;        &lt;/mxCell&gt;&#10;        &lt;mxCell id=&quot;-6ptDTptwhBMWIp2i-m9-104&quot; value=&quot;&quot; style=&quot;group&quot; vertex=&quot;1&quot; connectable=&quot;0&quot; parent=&quot;1&quot;&gt;&#10;          &lt;mxGeometry x=&quot;1720&quot; y=&quot;-480&quot; width=&quot;470&quot; height=&quot;430&quot; as=&quot;geometry&quot; /&gt;&#10;        &lt;/mxCell&gt;&#10;        &lt;mxCell id=&quot;-6ptDTptwhBMWIp2i-m9-102&quot; value=&quot;&quot; style=&quot;ellipse;whiteSpace=wrap;html=1;fillColor=none;dashed=1;dashPattern=12 12;aspect=fixed;&quot; vertex=&quot;1&quot; parent=&quot;-6ptDTptwhBMWIp2i-m9-104&quot;&gt;&#10;          &lt;mxGeometry width=&quot;430&quot; height=&quot;430&quot; as=&quot;geometry&quot; /&gt;&#10;        &lt;/mxCell&gt;&#10;        &lt;mxCell id=&quot;-6ptDTptwhBMWIp2i-m9-89&quot; value=&quot;&quot; style=&quot;group;aspect=fixed;&quot; vertex=&quot;1&quot; connectable=&quot;0&quot; parent=&quot;-6ptDTptwhBMWIp2i-m9-104&quot;&gt;&#10;          &lt;mxGeometry x=&quot;71.80555555555553&quot; y=&quot;168.56000000000003&quot; width=&quot;103.02083333333334&quot; height=&quot;103.02083333333334&quot; as=&quot;geometry&quot; /&gt;&#10;        &lt;/mxCell&gt;&#10;        &lt;mxCell id=&quot;-6ptDTptwhBMWIp2i-m9-87&quot; value=&quot;&quot; style=&quot;ellipse;whiteSpace=wrap;html=1;aspect=fixed;fillColor=none;dashed=1;dashPattern=12 12;&quot; vertex=&quot;1&quot; parent=&quot;-6ptDTptwhBMWIp2i-m9-89&quot;&gt;&#10;          &lt;mxGeometry width=&quot;103.02083333333334&quot; height=&quot;103.02083333333334&quot; as=&quot;geometry&quot; /&gt;&#10;        &lt;/mxCell&gt;&#10;        &lt;mxCell id=&quot;-6ptDTptwhBMWIp2i-m9-88&quot; value=&quot;&quot; style=&quot;shape=image;verticalLabelPosition=bottom;labelBackgroundColor=default;verticalAlign=top;aspect=fixed;imageAspect=0;image=https://miro.medium.com/v2/resize:fit:1200/1*vbs-yP6PB4id55syTwETTg.png;&quot; vertex=&quot;1&quot; parent=&quot;-6ptDTptwhBMWIp2i-m9-89&quot;&gt;&#10;          &lt;mxGeometry x=&quot;9.583333333333334&quot; y=&quot;34.739583333333336&quot; width=&quot;83.85416666666667&quot; height=&quot;33.541666666666664&quot; as=&quot;geometry&quot; /&gt;&#10;        &lt;/mxCell&gt;&#10;        &lt;mxCell id=&quot;-6ptDTptwhBMWIp2i-m9-91&quot; value=&quot;&quot; style=&quot;group;aspect=fixed;&quot; vertex=&quot;1&quot; connectable=&quot;0&quot; parent=&quot;-6ptDTptwhBMWIp2i-m9-104&quot;&gt;&#10;          &lt;mxGeometry x=&quot;254.58333333333331&quot; y=&quot;59.722222222222236&quot; width=&quot;103.02083333333334&quot; height=&quot;103.02083333333334&quot; as=&quot;geometry&quot; /&gt;&#10;        &lt;/mxCell&gt;&#10;        &lt;mxCell id=&quot;-6ptDTptwhBMWIp2i-m9-92&quot; value=&quot;&quot; style=&quot;ellipse;whiteSpace=wrap;html=1;aspect=fixed;fillColor=none;dashed=1;dashPattern=12 12;&quot; vertex=&quot;1&quot; parent=&quot;-6ptDTptwhBMWIp2i-m9-91&quot;&gt;&#10;          &lt;mxGeometry width=&quot;103.02083333333334&quot; height=&quot;103.02083333333334&quot; as=&quot;geometry&quot; /&gt;&#10;        &lt;/mxCell&gt;&#10;        &lt;mxCell id=&quot;-6ptDTptwhBMWIp2i-m9-93&quot; value=&quot;&quot; style=&quot;shape=image;verticalLabelPosition=bottom;labelBackgroundColor=default;verticalAlign=top;aspect=fixed;imageAspect=0;image=https://miro.medium.com/v2/resize:fit:1200/1*vbs-yP6PB4id55syTwETTg.png;&quot; vertex=&quot;1&quot; parent=&quot;-6ptDTptwhBMWIp2i-m9-91&quot;&gt;&#10;          &lt;mxGeometry x=&quot;9.583333333333334&quot; y=&quot;34.739583333333336&quot; width=&quot;83.85416666666667&quot; height=&quot;33.541666666666664&quot; as=&quot;geometry&quot; /&gt;&#10;        &lt;/mxCell&gt;&#10;        &lt;mxCell id=&quot;-6ptDTptwhBMWIp2i-m9-99&quot; value=&quot;&quot; style=&quot;group;aspect=fixed;&quot; vertex=&quot;1&quot; connectable=&quot;0&quot; parent=&quot;-6ptDTptwhBMWIp2i-m9-104&quot;&gt;&#10;          &lt;mxGeometry x=&quot;248.05555555555551&quot; y=&quot;261.9775&quot; width=&quot;103.02083333333334&quot; height=&quot;103.02083333333334&quot; as=&quot;geometry&quot; /&gt;&#10;        &lt;/mxCell&gt;&#10;        &lt;mxCell id=&quot;-6ptDTptwhBMWIp2i-m9-100&quot; value=&quot;&quot; style=&quot;ellipse;whiteSpace=wrap;html=1;aspect=fixed;fillColor=none;dashed=1;dashPattern=12 12;&quot; vertex=&quot;1&quot; parent=&quot;-6ptDTptwhBMWIp2i-m9-99&quot;&gt;&#10;          &lt;mxGeometry width=&quot;103.02083333333334&quot; height=&quot;103.02083333333334&quot; as=&quot;geometry&quot; /&gt;&#10;        &lt;/mxCell&gt;&#10;        &lt;mxCell id=&quot;-6ptDTptwhBMWIp2i-m9-101&quot; value=&quot;&quot; style=&quot;shape=image;verticalLabelPosition=bottom;labelBackgroundColor=default;verticalAlign=top;aspect=fixed;imageAspect=0;image=https://miro.medium.com/v2/resize:fit:1200/1*vbs-yP6PB4id55syTwETTg.png;&quot; vertex=&quot;1&quot; parent=&quot;-6ptDTptwhBMWIp2i-m9-99&quot;&gt;&#10;          &lt;mxGeometry x=&quot;9.583333333333334&quot; y=&quot;34.739583333333336&quot; width=&quot;83.85416666666667&quot; height=&quot;33.541666666666664&quot; as=&quot;geometry&quot; /&gt;&#10;        &lt;/mxCell&gt;&#10;      &lt;/root&gt;&#10;    &lt;/mxGraphModel&gt;&#10;  &lt;/diagram&gt;&#10;&lt;/mxfile&gt;&#10;" resource="https://app.diagrams.net/?src=about#HRaghuGannaram%2FSystemDesignCrashCourse%2Fmain%2Fprojects%2FNews%20Feed%2Fnews-feed.svg#%7B%22pageId%22%3A%22L95FdTZpybHTbwJrQIx_%22%7D"><defs/><g><g data-cell-id="0"><g data-cell-id="1"><g data-cell-id="-6ptDTptwhBMWIp2i-m9-1"><g><path d="M 400 574.74 L 520 574.74 L 520 694.74 L 400 694.74 Z" fill="#e7157b" stroke="none" pointer-events="all"/><path d="M 449.83 661.56 L 454.86 661.56 L 454.86 658.1 L 449.83 658.1 Z M 458.29 661.56 L 463.43 661.56 L 463.43 658.1 L 458.29 658.1 Z M 437.73 591.33 L 415.47 602.38 L 415.47 671.08 L 437.73 678.61 Z M 441.16 613.19 L 441.16 658.1 L 446.3 658.1 L 446.3 661.56 L 441.16 661.56 L 441.16 681.01 C 441.16 681.57 440.89 682.09 440.45 682.42 C 440.15 682.63 439.8 682.74 439.45 682.74 C 439.27 682.74 439.08 682.71 438.9 682.65 L 413.21 673.96 C 412.51 673.73 412.04 673.07 412.04 672.33 L 412.04 601.31 C 412.04 600.65 412.41 600.05 413 599.76 L 438.69 587 C 439.22 586.74 439.85 586.77 440.35 587.09 C 440.85 587.4 441.16 587.96 441.16 588.55 L 441.16 609.74 L 446.3 609.74 L 446.3 613.19 Z M 466.85 661.56 L 471.99 661.56 L 471.99 658.1 L 466.85 658.1 Z M 466.96 613.19 L 471.99 613.19 L 471.99 609.74 L 466.96 609.74 Z M 458.4 613.19 L 463.43 613.19 L 463.43 609.74 L 458.4 609.74 Z M 449.83 613.19 L 454.86 613.19 L 454.86 609.74 L 449.83 609.74 Z M 504.53 602.38 L 482.27 591.33 L 482.27 678.61 L 504.53 671.08 Z M 507.96 672.33 C 507.96 673.07 507.49 673.73 506.79 673.96 L 481.1 682.65 C 480.92 682.71 480.73 682.74 480.55 682.74 C 480.2 682.74 479.85 682.63 479.55 682.42 C 479.11 682.09 478.84 681.57 478.84 681.01 L 478.84 661.56 L 475.53 661.56 L 475.53 658.1 L 478.84 658.1 L 478.84 613.19 L 475.53 613.19 L 475.53 609.74 L 478.84 609.74 L 478.84 588.55 C 478.84 587.96 479.15 587.4 479.65 587.09 C 480.15 586.77 480.78 586.74 481.31 587 L 507 599.76 C 507.59 600.05 507.96 600.65 507.96 601.31 Z M 465.03 624.18 L 461.83 622.94 L 453.26 645.39 L 456.46 646.63 Z M 476.63 635.14 C 477.3 634.47 477.3 633.37 476.63 632.7 L 469.77 625.79 L 467.35 628.23 L 472.99 633.92 L 467.35 639.61 L 469.77 642.05 Z M 450.23 642.05 L 443.37 635.14 C 442.7 634.47 442.7 633.37 443.37 632.7 L 450.23 625.79 L 452.65 628.23 L 447.01 633.92 L 452.65 639.61 Z" fill="#ffffff" stroke="none" pointer-events="all"/></g></g><g data-cell-id="-6ptDTptwhBMWIp2i-m9-3"><g><path d="M 59.72 1174.74 C 28.02 1174.74 0 1149.89 0 1117.75 L 0 1111.2 C 0 1085.19 22.74 1054.74 60.17 1054.74 C 93.11 1054.74 120 1080.5 120 1111.76 L 119.97 1116.91 C 119.97 1149.66 92.69 1174.74 59.72 1174.74 Z" fill="#f58534" stroke="none" transform="rotate(270,60,1114.74)" pointer-events="all"/><path d="M 120 1111.76 L 119.97 1116.91 C 119.97 1149.69 92.69 1174.74 59.72 1174.74 C 28.02 1174.74 0 1149.87 0 1117.75 L 0 1111.2 C 0 1141.31 22.95 1169.84 60.59 1169.84 C 94.37 1169.84 120 1143.17 120 1111.76 Z" fill-opacity="0.3" fill="#000000" stroke="none" transform="rotate(270,60,1114.74)" pointer-events="all"/><rect x="0" y="1054.74" width="0" height="0" fill="none" stroke="rgb(0, 0, 0)" transform="rotate(270,60,1114.74)" pointer-events="all"/><path d="M 14.67 1143.43 L 14.67 1126.38 L 21.95 1126.38 L 21.95 1111.63 L 33.17 1111.63 L 33.17 1098.4 L 58.41 1098.4 L 58.41 1086.73 L 42.48 1086.73 L 42.48 1065.8 L 77.49 1065.8 L 77.49 1086.73 L 61.59 1086.73 L 61.59 1098.4 L 86.17 1098.4 L 86.17 1111.63 L 97.31 1111.63 L 97.31 1126.38 L 104.6 1126.38 L 104.6 1143.43 L 86.85 1143.43 L 86.85 1126.38 L 94.11 1126.38 L 94.11 1114.69 L 74.89 1114.69 L 74.89 1126.38 L 82.15 1126.38 L 82.15 1143.43 L 64.4 1143.43 L 64.4 1126.38 L 71.68 1126.38 L 71.68 1111.63 L 82.96 1111.63 L 82.96 1101.48 L 36.38 1101.48 L 36.38 1111.63 L 47.58 1111.63 L 47.58 1126.38 L 54.86 1126.38 L 54.86 1143.43 L 37.09 1143.43 L 37.09 1126.38 L 44.37 1126.38 L 44.37 1114.69 L 25.13 1114.69 L 25.13 1126.38 L 32.41 1126.38 L 32.41 1143.43 Z" fill="#ffffff" stroke="none" transform="rotate(270,60,1114.74)" pointer-events="all"/></g></g><g data-cell-id="-6ptDTptwhBMWIp2i-m9-9"><g><path d="M 400 1054.74 L 520 1054.74 L 520 1174.74 L 400 1174.74 Z" fill="#e7157b" stroke="none" pointer-events="all"/><path d="M 449.83 1141.56 L 454.86 1141.56 L 454.86 1138.1 L 449.83 1138.1 Z M 458.29 1141.56 L 463.43 1141.56 L 463.43 1138.1 L 458.29 1138.1 Z M 437.73 1071.33 L 415.47 1082.38 L 415.47 1151.08 L 437.73 1158.61 Z M 441.16 1093.19 L 441.16 1138.1 L 446.3 1138.1 L 446.3 1141.56 L 441.16 1141.56 L 441.16 1161.01 C 441.16 1161.57 440.89 1162.09 440.45 1162.42 C 440.15 1162.63 439.8 1162.74 439.45 1162.74 C 439.27 1162.74 439.08 1162.71 438.9 1162.65 L 413.21 1153.96 C 412.51 1153.73 412.04 1153.07 412.04 1152.33 L 412.04 1081.31 C 412.04 1080.65 412.41 1080.05 413 1079.76 L 438.69 1067 C 439.22 1066.74 439.85 1066.77 440.35 1067.09 C 440.85 1067.4 441.16 1067.96 441.16 1068.55 L 441.16 1089.74 L 446.3 1089.74 L 446.3 1093.19 Z M 466.85 1141.56 L 471.99 1141.56 L 471.99 1138.1 L 466.85 1138.1 Z M 466.96 1093.19 L 471.99 1093.19 L 471.99 1089.74 L 466.96 1089.74 Z M 458.4 1093.19 L 463.43 1093.19 L 463.43 1089.74 L 458.4 1089.74 Z M 449.83 1093.19 L 454.86 1093.19 L 454.86 1089.74 L 449.83 1089.74 Z M 504.53 1082.38 L 482.27 1071.33 L 482.27 1158.61 L 504.53 1151.08 Z M 507.96 1152.33 C 507.96 1153.07 507.49 1153.73 506.79 1153.96 L 481.1 1162.65 C 480.92 1162.71 480.73 1162.74 480.55 1162.74 C 480.2 1162.74 479.85 1162.63 479.55 1162.42 C 479.11 1162.09 478.84 1161.57 478.84 1161.01 L 478.84 1141.56 L 475.53 1141.56 L 475.53 1138.1 L 478.84 1138.1 L 478.84 1093.19 L 475.53 1093.19 L 475.53 1089.74 L 478.84 1089.74 L 478.84 1068.55 C 478.84 1067.96 479.15 1067.4 479.65 1067.09 C 480.15 1066.77 480.78 1066.74 481.31 1067 L 507 1079.76 C 507.59 1080.05 507.96 1080.65 507.96 1081.31 Z M 465.03 1104.18 L 461.83 1102.94 L 453.26 1125.39 L 456.46 1126.63 Z M 476.63 1115.14 C 477.3 1114.47 477.3 1113.37 476.63 1112.7 L 469.77 1105.79 L 467.35 1108.23 L 472.99 1113.92 L 467.35 1119.61 L 469.77 1122.05 Z M 450.23 1122.05 L 443.37 1115.14 C 442.7 1114.47 442.7 1113.37 443.37 1112.7 L 450.23 1105.79 L 452.65 1108.23 L 447.01 1113.92 L 452.65 1119.61 Z" fill="#ffffff" stroke="none" pointer-events="all"/></g></g><g data-cell-id="-6ptDTptwhBMWIp2i-m9-10"><g><path d="M 400 1534.74 L 520 1534.74 L 520 1654.74 L 400 1654.74 Z" fill="#e7157b" stroke="none" pointer-events="all"/><path d="M 449.83 1621.56 L 454.86 1621.56 L 454.86 1618.1 L 449.83 1618.1 Z M 458.29 1621.56 L 463.43 1621.56 L 463.43 1618.1 L 458.29 1618.1 Z M 437.73 1551.33 L 415.47 1562.38 L 415.47 1631.08 L 437.73 1638.61 Z M 441.16 1573.19 L 441.16 1618.1 L 446.3 1618.1 L 446.3 1621.56 L 441.16 1621.56 L 441.16 1641.01 C 441.16 1641.57 440.89 1642.09 440.45 1642.42 C 440.15 1642.63 439.8 1642.74 439.45 1642.74 C 439.27 1642.74 439.08 1642.71 438.9 1642.65 L 413.21 1633.96 C 412.51 1633.73 412.04 1633.07 412.04 1632.33 L 412.04 1561.31 C 412.04 1560.65 412.41 1560.05 413 1559.76 L 438.69 1547 C 439.22 1546.74 439.85 1546.77 440.35 1547.09 C 440.85 1547.4 441.16 1547.96 441.16 1548.55 L 441.16 1569.74 L 446.3 1569.74 L 446.3 1573.19 Z M 466.85 1621.56 L 471.99 1621.56 L 471.99 1618.1 L 466.85 1618.1 Z M 466.96 1573.19 L 471.99 1573.19 L 471.99 1569.74 L 466.96 1569.74 Z M 458.4 1573.19 L 463.43 1573.19 L 463.43 1569.74 L 458.4 1569.74 Z M 449.83 1573.19 L 454.86 1573.19 L 454.86 1569.74 L 449.83 1569.74 Z M 504.53 1562.38 L 482.27 1551.33 L 482.27 1638.61 L 504.53 1631.08 Z M 507.96 1632.33 C 507.96 1633.07 507.49 1633.73 506.79 1633.96 L 481.1 1642.65 C 480.92 1642.71 480.73 1642.74 480.55 1642.74 C 480.2 1642.74 479.85 1642.63 479.55 1642.42 C 479.11 1642.09 478.84 1641.57 478.84 1641.01 L 478.84 1621.56 L 475.53 1621.56 L 475.53 1618.1 L 478.84 1618.1 L 478.84 1573.19 L 475.53 1573.19 L 475.53 1569.74 L 478.84 1569.74 L 478.84 1548.55 C 478.84 1547.96 479.15 1547.4 479.65 1547.09 C 480.15 1546.77 480.78 1546.74 481.31 1547 L 507 1559.76 C 507.59 1560.05 507.96 1560.65 507.96 1561.31 Z M 465.03 1584.18 L 461.83 1582.94 L 453.26 1605.39 L 456.46 1606.63 Z M 476.63 1595.14 C 477.3 1594.47 477.3 1593.37 476.63 1592.7 L 469.77 1585.79 L 467.35 1588.23 L 472.99 1593.92 L 467.35 1599.61 L 469.77 1602.05 Z M 450.23 1602.05 L 443.37 1595.14 C 442.7 1594.47 442.7 1593.37 443.37 1592.7 L 450.23 1585.79 L 452.65 1588.23 L 447.01 1593.92 L 452.65 1599.61 Z" fill="#ffffff" stroke="none" pointer-events="all"/></g></g><g data-cell-id="-6ptDTptwhBMWIp2i-m9-16"><g/><g data-cell-id="-6ptDTptwhBMWIp2i-m9-15"><g><rect x="800" y="440" width="160" height="389.47" fill="none" stroke="rgb(0, 0, 0)" stroke-dasharray="12 12" pointer-events="all"/></g></g><g data-cell-id="-6ptDTptwhBMWIp2i-m9-11"><g><path d="M 840 520 L 920 520 L 920 600 L 840 600 Z" fill="#ed7100" stroke="none" pointer-events="all"/><path d="M 865.14 574.86 L 893.71 574.86 L 893.71 546.29 L 865.14 546.29 Z M 896 546.29 L 900.57 546.29 L 900.57 548.57 L 896 548.57 L 896 553.14 L 900.57 553.14 L 900.57 555.43 L 896 555.43 L 896 558.86 L 900.57 558.86 L 900.57 561.14 L 896 561.14 L 896 565.71 L 900.57 565.71 L 900.57 568 L 896 568 L 896 572.57 L 900.57 572.57 L 900.57 574.86 L 896 574.86 L 896 575.01 C 896 576.19 895.04 577.14 893.87 577.14 L 893.71 577.14 L 893.71 581.71 L 891.43 581.71 L 891.43 577.14 L 886.86 577.14 L 886.86 581.71 L 884.57 581.71 L 884.57 577.14 L 881.14 577.14 L 881.14 581.71 L 878.86 581.71 L 878.86 577.14 L 874.29 577.14 L 874.29 581.71 L 872 581.71 L 872 577.14 L 867.43 577.14 L 867.43 581.71 L 865.14 581.71 L 865.14 577.14 L 864.99 577.14 C 863.81 577.14 862.86 576.19 862.86 575.01 L 862.86 574.86 L 859.43 574.86 L 859.43 572.57 L 862.86 572.57 L 862.86 568 L 859.43 568 L 859.43 565.71 L 862.86 565.71 L 862.86 561.14 L 859.43 561.14 L 859.43 558.86 L 862.86 558.86 L 862.86 555.43 L 859.43 555.43 L 859.43 553.14 L 862.86 553.14 L 862.86 548.57 L 859.43 548.57 L 859.43 546.29 L 862.86 546.29 L 862.86 546.13 C 862.86 544.96 863.81 544 864.99 544 L 865.14 544 L 865.14 539.43 L 867.43 539.43 L 867.43 544 L 872 544 L 872 539.43 L 874.29 539.43 L 874.29 544 L 878.86 544 L 878.86 539.43 L 881.14 539.43 L 881.14 544 L 884.57 544 L 884.57 539.43 L 886.86 539.43 L 886.86 544 L 891.43 544 L 891.43 539.43 L 893.71 539.43 L 893.71 544 L 893.87 544 C 895.04 544 896 544.96 896 546.13 Z M 881.14 589.57 C 881.14 589.65 881.08 589.71 881 589.71 L 850.43 589.71 C 850.35 589.71 850.29 589.65 850.29 589.57 L 850.29 559 C 850.29 558.92 850.35 558.86 850.43 558.86 L 857.14 558.86 L 857.14 556.57 L 850.43 556.57 C 849.09 556.57 848 557.66 848 559 L 848 589.57 C 848 590.91 849.09 592 850.43 592 L 881 592 C 882.34 592 883.43 590.91 883.43 589.57 L 883.43 584 L 881.14 584 Z M 912 530.43 L 912 561 C 912 562.34 910.91 563.43 909.57 563.43 L 902.86 563.43 L 902.86 561.14 L 909.57 561.14 C 909.65 561.14 909.71 561.08 909.71 561 L 909.71 530.43 C 909.71 530.35 909.65 530.29 909.57 530.29 L 879 530.29 C 878.92 530.29 878.86 530.35 878.86 530.43 L 878.86 537.14 L 876.57 537.14 L 876.57 530.43 C 876.57 529.09 877.66 528 879 528 L 909.57 528 C 910.91 528 912 529.09 912 530.43 Z" fill="#ffffff" stroke="none" pointer-events="all"/></g></g><g data-cell-id="-6ptDTptwhBMWIp2i-m9-13"><g><rect x="857" y="460" width="48" height="48" fill="none" stroke="none" pointer-events="all"/><path d="M 904.82 482.97 L 896.13 482.97 L 900.28 478.82 L 898.74 477.29 L 892.68 483.35 C 892.26 483.77 892.26 484.46 892.68 484.89 L 898.74 490.95 L 900.28 489.41 L 896 485.14 L 904.82 485.14 Z M 863.25 477.29 L 861.72 478.82 L 865.87 482.97 L 857.18 482.97 L 857.18 485.14 L 866 485.14 L 861.72 489.41 L 863.25 490.95 L 869.32 484.89 C 869.74 484.46 869.74 483.77 869.32 483.35 Z M 875.41 489.64 L 886.58 489.64 L 886.58 478.47 L 875.41 478.47 Z M 888.52 477.25 L 890.52 477.25 L 890.52 479.42 L 888.75 479.42 L 888.75 481.06 L 890.52 481.06 L 890.52 483.23 L 888.75 483.23 L 888.75 484.87 L 890.52 484.87 L 890.52 487.04 L 888.75 487.04 L 888.75 488.68 L 890.52 488.68 L 890.52 490.85 L 888.52 490.85 C 888.35 491.16 888.1 491.4 887.8 491.57 L 887.8 493.58 L 885.63 493.58 L 885.63 491.81 L 883.99 491.81 L 883.99 493.58 L 881.82 493.58 L 881.82 491.81 L 880.18 491.81 L 880.18 493.58 L 878.01 493.58 L 878.01 491.81 L 876.37 491.81 L 876.37 493.58 L 874.2 493.58 L 874.2 491.57 C 873.9 491.4 873.65 491.16 873.48 490.85 L 871.47 490.85 L 871.47 488.68 L 873.25 488.68 L 873.25 487.04 L 871.47 487.04 L 871.47 484.87 L 873.25 484.87 L 873.25 483.23 L 871.47 483.23 L 871.47 481.06 L 873.25 481.06 L 873.25 479.42 L 871.47 479.42 L 871.47 477.25 L 873.48 477.25 C 873.65 476.95 873.9 476.7 874.2 476.53 L 874.2 474.53 L 876.37 474.53 L 876.37 476.3 L 878.01 476.3 L 878.01 474.53 L 880.18 474.53 L 880.18 476.3 L 881.82 476.3 L 881.82 474.53 L 883.99 474.53 L 883.99 476.3 L 885.63 476.3 L 885.63 474.53 L 887.8 474.53 L 887.8 476.53 C 888.1 476.7 888.35 476.95 888.52 477.25 Z M 882.09 504.3 L 882.09 495.48 L 879.92 495.48 L 879.92 504.3 L 875.7 500.09 L 874.17 501.62 L 880.23 507.68 C 880.44 507.89 880.72 508 881 508 C 881.28 508 881.55 507.89 881.76 507.68 L 887.83 501.62 L 886.29 500.09 Z M 875.7 468.02 L 874.17 466.49 L 880.23 460.42 C 880.66 460 881.34 460 881.76 460.42 L 887.83 466.49 L 886.29 468.02 L 882.09 463.81 L 882.09 472.62 L 879.92 472.62 L 879.92 463.81 Z" fill="#ed7100" stroke="none" pointer-events="all"/></g></g><g data-cell-id="-6ptDTptwhBMWIp2i-m9-12"><g><path d="M 842 621 L 920 621 L 920 699 L 842 699 Z" fill="#ed7100" stroke="none" pointer-events="all"/><path d="M 866.51 674.49 L 894.37 674.49 L 894.37 646.63 L 866.51 646.63 Z M 896.6 646.63 L 901.06 646.63 L 901.06 648.86 L 896.6 648.86 L 896.6 653.31 L 901.06 653.31 L 901.06 655.54 L 896.6 655.54 L 896.6 658.89 L 901.06 658.89 L 901.06 661.11 L 896.6 661.11 L 896.6 665.57 L 901.06 665.57 L 901.06 667.8 L 896.6 667.8 L 896.6 672.26 L 901.06 672.26 L 901.06 674.49 L 896.6 674.49 L 896.6 674.64 C 896.6 675.78 895.67 676.71 894.52 676.71 L 894.37 676.71 L 894.37 681.17 L 892.14 681.17 L 892.14 676.71 L 887.69 676.71 L 887.69 681.17 L 885.46 681.17 L 885.46 676.71 L 882.11 676.71 L 882.11 681.17 L 879.89 681.17 L 879.89 676.71 L 875.43 676.71 L 875.43 681.17 L 873.2 681.17 L 873.2 676.71 L 868.74 676.71 L 868.74 681.17 L 866.51 681.17 L 866.51 676.71 L 866.36 676.71 C 865.22 676.71 864.29 675.78 864.29 674.64 L 864.29 674.49 L 860.94 674.49 L 860.94 672.26 L 864.29 672.26 L 864.29 667.8 L 860.94 667.8 L 860.94 665.57 L 864.29 665.57 L 864.29 661.11 L 860.94 661.11 L 860.94 658.89 L 864.29 658.89 L 864.29 655.54 L 860.94 655.54 L 860.94 653.31 L 864.29 653.31 L 864.29 648.86 L 860.94 648.86 L 860.94 646.63 L 864.29 646.63 L 864.29 646.48 C 864.29 645.33 865.22 644.4 866.36 644.4 L 866.51 644.4 L 866.51 639.94 L 868.74 639.94 L 868.74 644.4 L 873.2 644.4 L 873.2 639.94 L 875.43 639.94 L 875.43 644.4 L 879.89 644.4 L 879.89 639.94 L 882.11 639.94 L 882.11 644.4 L 885.46 644.4 L 885.46 639.94 L 887.69 639.94 L 887.69 644.4 L 892.14 644.4 L 892.14 639.94 L 894.37 639.94 L 894.37 644.4 L 894.52 644.4 C 895.67 644.4 896.6 645.33 896.6 646.48 Z M 882.11 688.83 C 882.11 688.91 882.05 688.97 881.98 688.97 L 852.17 688.97 C 852.09 688.97 852.03 688.91 852.03 688.83 L 852.03 659.02 C 852.03 658.95 852.09 658.89 852.17 658.89 L 858.71 658.89 L 858.71 656.66 L 852.17 656.66 C 850.86 656.66 849.8 657.72 849.8 659.02 L 849.8 688.83 C 849.8 690.14 850.86 691.2 852.17 691.2 L 881.98 691.2 C 883.28 691.2 884.34 690.14 884.34 688.83 L 884.34 683.4 L 882.11 683.4 Z M 912.2 631.17 L 912.2 660.98 C 912.2 662.28 911.14 663.34 909.83 663.34 L 903.29 663.34 L 903.29 661.11 L 909.83 661.11 C 909.91 661.11 909.97 661.05 909.97 660.98 L 909.97 631.17 C 909.97 631.09 909.91 631.03 909.83 631.03 L 880.02 631.03 C 879.95 631.03 879.89 631.09 879.89 631.17 L 879.89 637.71 L 877.66 637.71 L 877.66 631.17 C 877.66 629.86 878.72 628.8 880.02 628.8 L 909.83 628.8 C 911.14 628.8 912.2 629.86 912.2 631.17 Z" fill="#ffffff" stroke="none" pointer-events="all"/></g></g><g data-cell-id="-6ptDTptwhBMWIp2i-m9-14"><g><path d="M 842 720 L 920 720 L 920 798 L 842 798 Z" fill="#ed7100" stroke="none" pointer-events="all"/><path d="M 866.51 773.49 L 894.37 773.49 L 894.37 745.63 L 866.51 745.63 Z M 896.6 745.63 L 901.06 745.63 L 901.06 747.86 L 896.6 747.86 L 896.6 752.31 L 901.06 752.31 L 901.06 754.54 L 896.6 754.54 L 896.6 757.89 L 901.06 757.89 L 901.06 760.11 L 896.6 760.11 L 896.6 764.57 L 901.06 764.57 L 901.06 766.8 L 896.6 766.8 L 896.6 771.26 L 901.06 771.26 L 901.06 773.49 L 896.6 773.49 L 896.6 773.64 C 896.6 774.78 895.67 775.71 894.52 775.71 L 894.37 775.71 L 894.37 780.17 L 892.14 780.17 L 892.14 775.71 L 887.69 775.71 L 887.69 780.17 L 885.46 780.17 L 885.46 775.71 L 882.11 775.71 L 882.11 780.17 L 879.89 780.17 L 879.89 775.71 L 875.43 775.71 L 875.43 780.17 L 873.2 780.17 L 873.2 775.71 L 868.74 775.71 L 868.74 780.17 L 866.51 780.17 L 866.51 775.71 L 866.36 775.71 C 865.22 775.71 864.29 774.78 864.29 773.64 L 864.29 773.49 L 860.94 773.49 L 860.94 771.26 L 864.29 771.26 L 864.29 766.8 L 860.94 766.8 L 860.94 764.57 L 864.29 764.57 L 864.29 760.11 L 860.94 760.11 L 860.94 757.89 L 864.29 757.89 L 864.29 754.54 L 860.94 754.54 L 860.94 752.31 L 864.29 752.31 L 864.29 747.86 L 860.94 747.86 L 860.94 745.63 L 864.29 745.63 L 864.29 745.48 C 864.29 744.33 865.22 743.4 866.36 743.4 L 866.51 743.4 L 866.51 738.94 L 868.74 738.94 L 868.74 743.4 L 873.2 743.4 L 873.2 738.94 L 875.43 738.94 L 875.43 743.4 L 879.89 743.4 L 879.89 738.94 L 882.11 738.94 L 882.11 743.4 L 885.46 743.4 L 885.46 738.94 L 887.69 738.94 L 887.69 743.4 L 892.14 743.4 L 892.14 738.94 L 894.37 738.94 L 894.37 743.4 L 894.52 743.4 C 895.67 743.4 896.6 744.33 896.6 745.48 Z M 882.11 787.83 C 882.11 787.91 882.05 787.97 881.98 787.97 L 852.17 787.97 C 852.09 787.97 852.03 787.91 852.03 787.83 L 852.03 758.02 C 852.03 757.95 852.09 757.89 852.17 757.89 L 858.71 757.89 L 858.71 755.66 L 852.17 755.66 C 850.86 755.66 849.8 756.72 849.8 758.02 L 849.8 787.83 C 849.8 789.14 850.86 790.2 852.17 790.2 L 881.98 790.2 C 883.28 790.2 884.34 789.14 884.34 787.83 L 884.34 782.4 L 882.11 782.4 Z M 912.2 730.17 L 912.2 759.98 C 912.2 761.28 911.14 762.34 909.83 762.34 L 903.29 762.34 L 903.29 760.11 L 909.83 760.11 C 909.91 760.11 909.97 760.05 909.97 759.98 L 909.97 730.17 C 909.97 730.09 909.91 730.03 909.83 730.03 L 880.02 730.03 C 879.95 730.03 879.89 730.09 879.89 730.17 L 879.89 736.71 L 877.66 736.71 L 877.66 730.17 C 877.66 728.86 878.72 727.8 880.02 727.8 L 909.83 727.8 C 911.14 727.8 912.2 728.86 912.2 730.17 Z" fill="#ffffff" stroke="none" pointer-events="all"/></g></g></g><g data-cell-id="-6ptDTptwhBMWIp2i-m9-17"><g/><g data-cell-id="-6ptDTptwhBMWIp2i-m9-18"><g><rect x="800" y="920" width="160" height="389.47" fill="none" stroke="rgb(0, 0, 0)" stroke-dasharray="12 12" pointer-events="all"/></g></g><g data-cell-id="-6ptDTptwhBMWIp2i-m9-19"><g><path d="M 840 1000 L 920 1000 L 920 1080 L 840 1080 Z" fill="#ed7100" stroke="none" pointer-events="all"/><path d="M 865.14 1054.86 L 893.71 1054.86 L 893.71 1026.29 L 865.14 1026.29 Z M 896 1026.29 L 900.57 1026.29 L 900.57 1028.57 L 896 1028.57 L 896 1033.14 L 900.57 1033.14 L 900.57 1035.43 L 896 1035.43 L 896 1038.86 L 900.57 1038.86 L 900.57 1041.14 L 896 1041.14 L 896 1045.71 L 900.57 1045.71 L 900.57 1048 L 896 1048 L 896 1052.57 L 900.57 1052.57 L 900.57 1054.86 L 896 1054.86 L 896 1055.01 C 896 1056.19 895.04 1057.14 893.87 1057.14 L 893.71 1057.14 L 893.71 1061.71 L 891.43 1061.71 L 891.43 1057.14 L 886.86 1057.14 L 886.86 1061.71 L 884.57 1061.71 L 884.57 1057.14 L 881.14 1057.14 L 881.14 1061.71 L 878.86 1061.71 L 878.86 1057.14 L 874.29 1057.14 L 874.29 1061.71 L 872 1061.71 L 872 1057.14 L 867.43 1057.14 L 867.43 1061.71 L 865.14 1061.71 L 865.14 1057.14 L 864.99 1057.14 C 863.81 1057.14 862.86 1056.19 862.86 1055.01 L 862.86 1054.86 L 859.43 1054.86 L 859.43 1052.57 L 862.86 1052.57 L 862.86 1048 L 859.43 1048 L 859.43 1045.71 L 862.86 1045.71 L 862.86 1041.14 L 859.43 1041.14 L 859.43 1038.86 L 862.86 1038.86 L 862.86 1035.43 L 859.43 1035.43 L 859.43 1033.14 L 862.86 1033.14 L 862.86 1028.57 L 859.43 1028.57 L 859.43 1026.29 L 862.86 1026.29 L 862.86 1026.13 C 862.86 1024.96 863.81 1024 864.99 1024 L 865.14 1024 L 865.14 1019.43 L 867.43 1019.43 L 867.43 1024 L 872 1024 L 872 1019.43 L 874.29 1019.43 L 874.29 1024 L 878.86 1024 L 878.86 1019.43 L 881.14 1019.43 L 881.14 1024 L 884.57 1024 L 884.57 1019.43 L 886.86 1019.43 L 886.86 1024 L 891.43 1024 L 891.43 1019.43 L 893.71 1019.43 L 893.71 1024 L 893.87 1024 C 895.04 1024 896 1024.96 896 1026.13 Z M 881.14 1069.57 C 881.14 1069.65 881.08 1069.71 881 1069.71 L 850.43 1069.71 C 850.35 1069.71 850.29 1069.65 850.29 1069.57 L 850.29 1039 C 850.29 1038.92 850.35 1038.86 850.43 1038.86 L 857.14 1038.86 L 857.14 1036.57 L 850.43 1036.57 C 849.09 1036.57 848 1037.66 848 1039 L 848 1069.57 C 848 1070.91 849.09 1072 850.43 1072 L 881 1072 C 882.34 1072 883.43 1070.91 883.43 1069.57 L 883.43 1064 L 881.14 1064 Z M 912 1010.43 L 912 1041 C 912 1042.34 910.91 1043.43 909.57 1043.43 L 902.86 1043.43 L 902.86 1041.14 L 909.57 1041.14 C 909.65 1041.14 909.71 1041.08 909.71 1041 L 909.71 1010.43 C 909.71 1010.35 909.65 1010.29 909.57 1010.29 L 879 1010.29 C 878.92 1010.29 878.86 1010.35 878.86 1010.43 L 878.86 1017.14 L 876.57 1017.14 L 876.57 1010.43 C 876.57 1009.09 877.66 1008 879 1008 L 909.57 1008 C 910.91 1008 912 1009.09 912 1010.43 Z" fill="#ffffff" stroke="none" pointer-events="all"/></g></g><g data-cell-id="-6ptDTptwhBMWIp2i-m9-20"><g><rect x="857" y="940" width="48" height="48" fill="none" stroke="none" pointer-events="all"/><path d="M 904.82 962.97 L 896.13 962.97 L 900.28 958.82 L 898.74 957.29 L 892.68 963.35 C 892.26 963.77 892.26 964.46 892.68 964.89 L 898.74 970.95 L 900.28 969.41 L 896 965.14 L 904.82 965.14 Z M 863.25 957.29 L 861.72 958.82 L 865.87 962.97 L 857.18 962.97 L 857.18 965.14 L 866 965.14 L 861.72 969.41 L 863.25 970.95 L 869.32 964.89 C 869.74 964.46 869.74 963.77 869.32 963.35 Z M 875.41 969.64 L 886.58 969.64 L 886.58 958.47 L 875.41 958.47 Z M 888.52 957.25 L 890.52 957.25 L 890.52 959.42 L 888.75 959.42 L 888.75 961.06 L 890.52 961.06 L 890.52 963.23 L 888.75 963.23 L 888.75 964.87 L 890.52 964.87 L 890.52 967.04 L 888.75 967.04 L 888.75 968.68 L 890.52 968.68 L 890.52 970.85 L 888.52 970.85 C 888.35 971.16 888.1 971.4 887.8 971.57 L 887.8 973.58 L 885.63 973.58 L 885.63 971.81 L 883.99 971.81 L 883.99 973.58 L 881.82 973.58 L 881.82 971.81 L 880.18 971.81 L 880.18 973.58 L 878.01 973.58 L 878.01 971.81 L 876.37 971.81 L 876.37 973.58 L 874.2 973.58 L 874.2 971.57 C 873.9 971.4 873.65 971.16 873.48 970.85 L 871.47 970.85 L 871.47 968.68 L 873.25 968.68 L 873.25 967.04 L 871.47 967.04 L 871.47 964.87 L 873.25 964.87 L 873.25 963.23 L 871.47 963.23 L 871.47 961.06 L 873.25 961.06 L 873.25 959.42 L 871.47 959.42 L 871.47 957.25 L 873.48 957.25 C 873.65 956.95 873.9 956.7 874.2 956.53 L 874.2 954.53 L 876.37 954.53 L 876.37 956.3 L 878.01 956.3 L 878.01 954.53 L 880.18 954.53 L 880.18 956.3 L 881.82 956.3 L 881.82 954.53 L 883.99 954.53 L 883.99 956.3 L 885.63 956.3 L 885.63 954.53 L 887.8 954.53 L 887.8 956.53 C 888.1 956.7 888.35 956.95 888.52 957.25 Z M 882.09 984.3 L 882.09 975.48 L 879.92 975.48 L 879.92 984.3 L 875.7 980.09 L 874.17 981.62 L 880.23 987.68 C 880.44 987.89 880.72 988 881 988 C 881.28 988 881.55 987.89 881.76 987.68 L 887.83 981.62 L 886.29 980.09 Z M 875.7 948.02 L 874.17 946.49 L 880.23 940.42 C 880.66 940 881.34 940 881.76 940.42 L 887.83 946.49 L 886.29 948.02 L 882.09 943.81 L 882.09 952.62 L 879.92 952.62 L 879.92 943.81 Z" fill="#ed7100" stroke="none" pointer-events="all"/></g></g><g data-cell-id="-6ptDTptwhBMWIp2i-m9-21"><g><path d="M 842 1101 L 920 1101 L 920 1179 L 842 1179 Z" fill="#ed7100" stroke="none" pointer-events="all"/><path d="M 866.51 1154.49 L 894.37 1154.49 L 894.37 1126.63 L 866.51 1126.63 Z M 896.6 1126.63 L 901.06 1126.63 L 901.06 1128.86 L 896.6 1128.86 L 896.6 1133.31 L 901.06 1133.31 L 901.06 1135.54 L 896.6 1135.54 L 896.6 1138.89 L 901.06 1138.89 L 901.06 1141.11 L 896.6 1141.11 L 896.6 1145.57 L 901.06 1145.57 L 901.06 1147.8 L 896.6 1147.8 L 896.6 1152.26 L 901.06 1152.26 L 901.06 1154.49 L 896.6 1154.49 L 896.6 1154.64 C 896.6 1155.78 895.67 1156.71 894.52 1156.71 L 894.37 1156.71 L 894.37 1161.17 L 892.14 1161.17 L 892.14 1156.71 L 887.69 1156.71 L 887.69 1161.17 L 885.46 1161.17 L 885.46 1156.71 L 882.11 1156.71 L 882.11 1161.17 L 879.89 1161.17 L 879.89 1156.71 L 875.43 1156.71 L 875.43 1161.17 L 873.2 1161.17 L 873.2 1156.71 L 868.74 1156.71 L 868.74 1161.17 L 866.51 1161.17 L 866.51 1156.71 L 866.36 1156.71 C 865.22 1156.71 864.29 1155.78 864.29 1154.64 L 864.29 1154.49 L 860.94 1154.49 L 860.94 1152.26 L 864.29 1152.26 L 864.29 1147.8 L 860.94 1147.8 L 860.94 1145.57 L 864.29 1145.57 L 864.29 1141.11 L 860.94 1141.11 L 860.94 1138.89 L 864.29 1138.89 L 864.29 1135.54 L 860.94 1135.54 L 860.94 1133.31 L 864.29 1133.31 L 864.29 1128.86 L 860.94 1128.86 L 860.94 1126.63 L 864.29 1126.63 L 864.29 1126.48 C 864.29 1125.33 865.22 1124.4 866.36 1124.4 L 866.51 1124.4 L 866.51 1119.94 L 868.74 1119.94 L 868.74 1124.4 L 873.2 1124.4 L 873.2 1119.94 L 875.43 1119.94 L 875.43 1124.4 L 879.89 1124.4 L 879.89 1119.94 L 882.11 1119.94 L 882.11 1124.4 L 885.46 1124.4 L 885.46 1119.94 L 887.69 1119.94 L 887.69 1124.4 L 892.14 1124.4 L 892.14 1119.94 L 894.37 1119.94 L 894.37 1124.4 L 894.52 1124.4 C 895.67 1124.4 896.6 1125.33 896.6 1126.48 Z M 882.11 1168.83 C 882.11 1168.91 882.05 1168.97 881.98 1168.97 L 852.17 1168.97 C 852.09 1168.97 852.03 1168.91 852.03 1168.83 L 852.03 1139.02 C 852.03 1138.95 852.09 1138.89 852.17 1138.89 L 858.71 1138.89 L 858.71 1136.66 L 852.17 1136.66 C 850.86 1136.66 849.8 1137.72 849.8 1139.02 L 849.8 1168.83 C 849.8 1170.14 850.86 1171.2 852.17 1171.2 L 881.98 1171.2 C 883.28 1171.2 884.34 1170.14 884.34 1168.83 L 884.34 1163.4 L 882.11 1163.4 Z M 912.2 1111.17 L 912.2 1140.98 C 912.2 1142.28 911.14 1143.34 909.83 1143.34 L 903.29 1143.34 L 903.29 1141.11 L 909.83 1141.11 C 909.91 1141.11 909.97 1141.05 909.97 1140.98 L 909.97 1111.17 C 909.97 1111.09 909.91 1111.03 909.83 1111.03 L 880.02 1111.03 C 879.95 1111.03 879.89 1111.09 879.89 1111.17 L 879.89 1117.71 L 877.66 1117.71 L 877.66 1111.17 C 877.66 1109.86 878.72 1108.8 880.02 1108.8 L 909.83 1108.8 C 911.14 1108.8 912.2 1109.86 912.2 1111.17 Z" fill="#ffffff" stroke="none" pointer-events="all"/></g></g><g data-cell-id="-6ptDTptwhBMWIp2i-m9-22"><g><path d="M 842 1200 L 920 1200 L 920 1278 L 842 1278 Z" fill="#ed7100" stroke="none" pointer-events="all"/><path d="M 866.51 1253.49 L 894.37 1253.49 L 894.37 1225.63 L 866.51 1225.63 Z M 896.6 1225.63 L 901.06 1225.63 L 901.06 1227.86 L 896.6 1227.86 L 896.6 1232.31 L 901.06 1232.31 L 901.06 1234.54 L 896.6 1234.54 L 896.6 1237.89 L 901.06 1237.89 L 901.06 1240.11 L 896.6 1240.11 L 896.6 1244.57 L 901.06 1244.57 L 901.06 1246.8 L 896.6 1246.8 L 896.6 1251.26 L 901.06 1251.26 L 901.06 1253.49 L 896.6 1253.49 L 896.6 1253.64 C 896.6 1254.78 895.67 1255.71 894.52 1255.71 L 894.37 1255.71 L 894.37 1260.17 L 892.14 1260.17 L 892.14 1255.71 L 887.69 1255.71 L 887.69 1260.17 L 885.46 1260.17 L 885.46 1255.71 L 882.11 1255.71 L 882.11 1260.17 L 879.89 1260.17 L 879.89 1255.71 L 875.43 1255.71 L 875.43 1260.17 L 873.2 1260.17 L 873.2 1255.71 L 868.74 1255.71 L 868.74 1260.17 L 866.51 1260.17 L 866.51 1255.71 L 866.36 1255.71 C 865.22 1255.71 864.29 1254.78 864.29 1253.64 L 864.29 1253.49 L 860.94 1253.49 L 860.94 1251.26 L 864.29 1251.26 L 864.29 1246.8 L 860.94 1246.8 L 860.94 1244.57 L 864.29 1244.57 L 864.29 1240.11 L 860.94 1240.11 L 860.94 1237.89 L 864.29 1237.89 L 864.29 1234.54 L 860.94 1234.54 L 860.94 1232.31 L 864.29 1232.31 L 864.29 1227.86 L 860.94 1227.86 L 860.94 1225.63 L 864.29 1225.63 L 864.29 1225.48 C 864.29 1224.33 865.22 1223.4 866.36 1223.4 L 866.51 1223.4 L 866.51 1218.94 L 868.74 1218.94 L 868.74 1223.4 L 873.2 1223.4 L 873.2 1218.94 L 875.43 1218.94 L 875.43 1223.4 L 879.89 1223.4 L 879.89 1218.94 L 882.11 1218.94 L 882.11 1223.4 L 885.46 1223.4 L 885.46 1218.94 L 887.69 1218.94 L 887.69 1223.4 L 892.14 1223.4 L 892.14 1218.94 L 894.37 1218.94 L 894.37 1223.4 L 894.52 1223.4 C 895.67 1223.4 896.6 1224.33 896.6 1225.48 Z M 882.11 1267.83 C 882.11 1267.91 882.05 1267.97 881.98 1267.97 L 852.17 1267.97 C 852.09 1267.97 852.03 1267.91 852.03 1267.83 L 852.03 1238.02 C 852.03 1237.95 852.09 1237.89 852.17 1237.89 L 858.71 1237.89 L 858.71 1235.66 L 852.17 1235.66 C 850.86 1235.66 849.8 1236.72 849.8 1238.02 L 849.8 1267.83 C 849.8 1269.14 850.86 1270.2 852.17 1270.2 L 881.98 1270.2 C 883.28 1270.2 884.34 1269.14 884.34 1267.83 L 884.34 1262.4 L 882.11 1262.4 Z M 912.2 1210.17 L 912.2 1239.98 C 912.2 1241.28 911.14 1242.34 909.83 1242.34 L 903.29 1242.34 L 903.29 1240.11 L 909.83 1240.11 C 909.91 1240.11 909.97 1240.05 909.97 1239.98 L 909.97 1210.17 C 909.97 1210.09 909.91 1210.03 909.83 1210.03 L 880.02 1210.03 C 879.95 1210.03 879.89 1210.09 879.89 1210.17 L 879.89 1216.71 L 877.66 1216.71 L 877.66 1210.17 C 877.66 1208.86 878.72 1207.8 880.02 1207.8 L 909.83 1207.8 C 911.14 1207.8 912.2 1208.86 912.2 1210.17 Z" fill="#ffffff" stroke="none" pointer-events="all"/></g></g></g><g data-cell-id="-6ptDTptwhBMWIp2i-m9-23"><g/><g data-cell-id="-6ptDTptwhBMWIp2i-m9-24"><g><rect x="800" y="1400" width="160" height="389.47" fill="none" stroke="rgb(0, 0, 0)" stroke-dasharray="12 12" pointer-events="all"/></g></g><g data-cell-id="-6ptDTptwhBMWIp2i-m9-25"><g><path d="M 840 1480 L 920 1480 L 920 1560 L 840 1560 Z" fill="#ed7100" stroke="none" pointer-events="all"/><path d="M 865.14 1534.86 L 893.71 1534.86 L 893.71 1506.29 L 865.14 1506.29 Z M 896 1506.29 L 900.57 1506.29 L 900.57 1508.57 L 896 1508.57 L 896 1513.14 L 900.57 1513.14 L 900.57 1515.43 L 896 1515.43 L 896 1518.86 L 900.57 1518.86 L 900.57 1521.14 L 896 1521.14 L 896 1525.71 L 900.57 1525.71 L 900.57 1528 L 896 1528 L 896 1532.57 L 900.57 1532.57 L 900.57 1534.86 L 896 1534.86 L 896 1535.01 C 896 1536.19 895.04 1537.14 893.87 1537.14 L 893.71 1537.14 L 893.71 1541.71 L 891.43 1541.71 L 891.43 1537.14 L 886.86 1537.14 L 886.86 1541.71 L 884.57 1541.71 L 884.57 1537.14 L 881.14 1537.14 L 881.14 1541.71 L 878.86 1541.71 L 878.86 1537.14 L 874.29 1537.14 L 874.29 1541.71 L 872 1541.71 L 872 1537.14 L 867.43 1537.14 L 867.43 1541.71 L 865.14 1541.71 L 865.14 1537.14 L 864.99 1537.14 C 863.81 1537.14 862.86 1536.19 862.86 1535.01 L 862.86 1534.86 L 859.43 1534.86 L 859.43 1532.57 L 862.86 1532.57 L 862.86 1528 L 859.43 1528 L 859.43 1525.71 L 862.86 1525.71 L 862.86 1521.14 L 859.43 1521.14 L 859.43 1518.86 L 862.86 1518.86 L 862.86 1515.43 L 859.43 1515.43 L 859.43 1513.14 L 862.86 1513.14 L 862.86 1508.57 L 859.43 1508.57 L 859.43 1506.29 L 862.86 1506.29 L 862.86 1506.13 C 862.86 1504.96 863.81 1504 864.99 1504 L 865.14 1504 L 865.14 1499.43 L 867.43 1499.43 L 867.43 1504 L 872 1504 L 872 1499.43 L 874.29 1499.43 L 874.29 1504 L 878.86 1504 L 878.86 1499.43 L 881.14 1499.43 L 881.14 1504 L 884.57 1504 L 884.57 1499.43 L 886.86 1499.43 L 886.86 1504 L 891.43 1504 L 891.43 1499.43 L 893.71 1499.43 L 893.71 1504 L 893.87 1504 C 895.04 1504 896 1504.96 896 1506.13 Z M 881.14 1549.57 C 881.14 1549.65 881.08 1549.71 881 1549.71 L 850.43 1549.71 C 850.35 1549.71 850.29 1549.65 850.29 1549.57 L 850.29 1519 C 850.29 1518.92 850.35 1518.86 850.43 1518.86 L 857.14 1518.86 L 857.14 1516.57 L 850.43 1516.57 C 849.09 1516.57 848 1517.66 848 1519 L 848 1549.57 C 848 1550.91 849.09 1552 850.43 1552 L 881 1552 C 882.34 1552 883.43 1550.91 883.43 1549.57 L 883.43 1544 L 881.14 1544 Z M 912 1490.43 L 912 1521 C 912 1522.34 910.91 1523.43 909.57 1523.43 L 902.86 1523.43 L 902.86 1521.14 L 909.57 1521.14 C 909.65 1521.14 909.71 1521.08 909.71 1521 L 909.71 1490.43 C 909.71 1490.35 909.65 1490.29 909.57 1490.29 L 879 1490.29 C 878.92 1490.29 878.86 1490.35 878.86 1490.43 L 878.86 1497.14 L 876.57 1497.14 L 876.57 1490.43 C 876.57 1489.09 877.66 1488 879 1488 L 909.57 1488 C 910.91 1488 912 1489.09 912 1490.43 Z" fill="#ffffff" stroke="none" pointer-events="all"/></g></g><g data-cell-id="-6ptDTptwhBMWIp2i-m9-26"><g><rect x="857" y="1420" width="48" height="48" fill="none" stroke="none" pointer-events="all"/><path d="M 904.82 1442.97 L 896.13 1442.97 L 900.28 1438.82 L 898.74 1437.29 L 892.68 1443.35 C 892.26 1443.77 892.26 1444.46 892.68 1444.89 L 898.74 1450.95 L 900.28 1449.41 L 896 1445.14 L 904.82 1445.14 Z M 863.25 1437.29 L 861.72 1438.82 L 865.87 1442.97 L 857.18 1442.97 L 857.18 1445.14 L 866 1445.14 L 861.72 1449.41 L 863.25 1450.95 L 869.32 1444.89 C 869.74 1444.46 869.74 1443.77 869.32 1443.35 Z M 875.41 1449.64 L 886.58 1449.64 L 886.58 1438.47 L 875.41 1438.47 Z M 888.52 1437.25 L 890.52 1437.25 L 890.52 1439.42 L 888.75 1439.42 L 888.75 1441.06 L 890.52 1441.06 L 890.52 1443.23 L 888.75 1443.23 L 888.75 1444.87 L 890.52 1444.87 L 890.52 1447.04 L 888.75 1447.04 L 888.75 1448.68 L 890.52 1448.68 L 890.52 1450.85 L 888.52 1450.85 C 888.35 1451.16 888.1 1451.4 887.8 1451.57 L 887.8 1453.58 L 885.63 1453.58 L 885.63 1451.81 L 883.99 1451.81 L 883.99 1453.58 L 881.82 1453.58 L 881.82 1451.81 L 880.18 1451.81 L 880.18 1453.58 L 878.01 1453.58 L 878.01 1451.81 L 876.37 1451.81 L 876.37 1453.58 L 874.2 1453.58 L 874.2 1451.57 C 873.9 1451.4 873.65 1451.16 873.48 1450.85 L 871.47 1450.85 L 871.47 1448.68 L 873.25 1448.68 L 873.25 1447.04 L 871.47 1447.04 L 871.47 1444.87 L 873.25 1444.87 L 873.25 1443.23 L 871.47 1443.23 L 871.47 1441.06 L 873.25 1441.06 L 873.25 1439.42 L 871.47 1439.42 L 871.47 1437.25 L 873.48 1437.25 C 873.65 1436.95 873.9 1436.7 874.2 1436.53 L 874.2 1434.53 L 876.37 1434.53 L 876.37 1436.3 L 878.01 1436.3 L 878.01 1434.53 L 880.18 1434.53 L 880.18 1436.3 L 881.82 1436.3 L 881.82 1434.53 L 883.99 1434.53 L 883.99 1436.3 L 885.63 1436.3 L 885.63 1434.53 L 887.8 1434.53 L 887.8 1436.53 C 888.1 1436.7 888.35 1436.95 888.52 1437.25 Z M 882.09 1464.3 L 882.09 1455.48 L 879.92 1455.48 L 879.92 1464.3 L 875.7 1460.09 L 874.17 1461.62 L 880.23 1467.68 C 880.44 1467.89 880.72 1468 881 1468 C 881.28 1468 881.55 1467.89 881.76 1467.68 L 887.83 1461.62 L 886.29 1460.09 Z M 875.7 1428.02 L 874.17 1426.49 L 880.23 1420.42 C 880.66 1420 881.34 1420 881.76 1420.42 L 887.83 1426.49 L 886.29 1428.02 L 882.09 1423.81 L 882.09 1432.62 L 879.92 1432.62 L 879.92 1423.81 Z" fill="#ed7100" stroke="none" pointer-events="all"/></g></g><g data-cell-id="-6ptDTptwhBMWIp2i-m9-27"><g><path d="M 842 1581 L 920 1581 L 920 1659 L 842 1659 Z" fill="#ed7100" stroke="none" pointer-events="all"/><path d="M 866.51 1634.49 L 894.37 1634.49 L 894.37 1606.63 L 866.51 1606.63 Z M 896.6 1606.63 L 901.06 1606.63 L 901.06 1608.86 L 896.6 1608.86 L 896.6 1613.31 L 901.06 1613.31 L 901.06 1615.54 L 896.6 1615.54 L 896.6 1618.89 L 901.06 1618.89 L 901.06 1621.11 L 896.6 1621.11 L 896.6 1625.57 L 901.06 1625.57 L 901.06 1627.8 L 896.6 1627.8 L 896.6 1632.26 L 901.06 1632.26 L 901.06 1634.49 L 896.6 1634.49 L 896.6 1634.64 C 896.6 1635.78 895.67 1636.71 894.52 1636.71 L 894.37 1636.71 L 894.37 1641.17 L 892.14 1641.17 L 892.14 1636.71 L 887.69 1636.71 L 887.69 1641.17 L 885.46 1641.17 L 885.46 1636.71 L 882.11 1636.71 L 882.11 1641.17 L 879.89 1641.17 L 879.89 1636.71 L 875.43 1636.71 L 875.43 1641.17 L 873.2 1641.17 L 873.2 1636.71 L 868.74 1636.71 L 868.74 1641.17 L 866.51 1641.17 L 866.51 1636.71 L 866.36 1636.71 C 865.22 1636.71 864.29 1635.78 864.29 1634.64 L 864.29 1634.49 L 860.94 1634.49 L 860.94 1632.26 L 864.29 1632.26 L 864.29 1627.8 L 860.94 1627.8 L 860.94 1625.57 L 864.29 1625.57 L 864.29 1621.11 L 860.94 1621.11 L 860.94 1618.89 L 864.29 1618.89 L 864.29 1615.54 L 860.94 1615.54 L 860.94 1613.31 L 864.29 1613.31 L 864.29 1608.86 L 860.94 1608.86 L 860.94 1606.63 L 864.29 1606.63 L 864.29 1606.48 C 864.29 1605.33 865.22 1604.4 866.36 1604.4 L 866.51 1604.4 L 866.51 1599.94 L 868.74 1599.94 L 868.74 1604.4 L 873.2 1604.4 L 873.2 1599.94 L 875.43 1599.94 L 875.43 1604.4 L 879.89 1604.4 L 879.89 1599.94 L 882.11 1599.94 L 882.11 1604.4 L 885.46 1604.4 L 885.46 1599.94 L 887.69 1599.94 L 887.69 1604.4 L 892.14 1604.4 L 892.14 1599.94 L 894.37 1599.94 L 894.37 1604.4 L 894.52 1604.4 C 895.67 1604.4 896.6 1605.33 896.6 1606.48 Z M 882.11 1648.83 C 882.11 1648.91 882.05 1648.97 881.98 1648.97 L 852.17 1648.97 C 852.09 1648.97 852.03 1648.91 852.03 1648.83 L 852.03 1619.02 C 852.03 1618.95 852.09 1618.89 852.17 1618.89 L 858.71 1618.89 L 858.71 1616.66 L 852.17 1616.66 C 850.86 1616.66 849.8 1617.72 849.8 1619.02 L 849.8 1648.83 C 849.8 1650.14 850.86 1651.2 852.17 1651.2 L 881.98 1651.2 C 883.28 1651.2 884.34 1650.14 884.34 1648.83 L 884.34 1643.4 L 882.11 1643.4 Z M 912.2 1591.17 L 912.2 1620.98 C 912.2 1622.28 911.14 1623.34 909.83 1623.34 L 903.29 1623.34 L 903.29 1621.11 L 909.83 1621.11 C 909.91 1621.11 909.97 1621.05 909.97 1620.98 L 909.97 1591.17 C 909.97 1591.09 909.91 1591.03 909.83 1591.03 L 880.02 1591.03 C 879.95 1591.03 879.89 1591.09 879.89 1591.17 L 879.89 1597.71 L 877.66 1597.71 L 877.66 1591.17 C 877.66 1589.86 878.72 1588.8 880.02 1588.8 L 909.83 1588.8 C 911.14 1588.8 912.2 1589.86 912.2 1591.17 Z" fill="#ffffff" stroke="none" pointer-events="all"/></g></g><g data-cell-id="-6ptDTptwhBMWIp2i-m9-28"><g><path d="M 842 1680 L 920 1680 L 920 1758 L 842 1758 Z" fill="#ed7100" stroke="none" pointer-events="all"/><path d="M 866.51 1733.49 L 894.37 1733.49 L 894.37 1705.63 L 866.51 1705.63 Z M 896.6 1705.63 L 901.06 1705.63 L 901.06 1707.86 L 896.6 1707.86 L 896.6 1712.31 L 901.06 1712.31 L 901.06 1714.54 L 896.6 1714.54 L 896.6 1717.89 L 901.06 1717.89 L 901.06 1720.11 L 896.6 1720.11 L 896.6 1724.57 L 901.06 1724.57 L 901.06 1726.8 L 896.6 1726.8 L 896.6 1731.26 L 901.06 1731.26 L 901.06 1733.49 L 896.6 1733.49 L 896.6 1733.64 C 896.6 1734.78 895.67 1735.71 894.52 1735.71 L 894.37 1735.71 L 894.37 1740.17 L 892.14 1740.17 L 892.14 1735.71 L 887.69 1735.71 L 887.69 1740.17 L 885.46 1740.17 L 885.46 1735.71 L 882.11 1735.71 L 882.11 1740.17 L 879.89 1740.17 L 879.89 1735.71 L 875.43 1735.71 L 875.43 1740.17 L 873.2 1740.17 L 873.2 1735.71 L 868.74 1735.71 L 868.74 1740.17 L 866.51 1740.17 L 866.51 1735.71 L 866.36 1735.71 C 865.22 1735.71 864.29 1734.78 864.29 1733.64 L 864.29 1733.49 L 860.94 1733.49 L 860.94 1731.26 L 864.29 1731.26 L 864.29 1726.8 L 860.94 1726.8 L 860.94 1724.57 L 864.29 1724.57 L 864.29 1720.11 L 860.94 1720.11 L 860.94 1717.89 L 864.29 1717.89 L 864.29 1714.54 L 860.94 1714.54 L 860.94 1712.31 L 864.29 1712.31 L 864.29 1707.86 L 860.94 1707.86 L 860.94 1705.63 L 864.29 1705.63 L 864.29 1705.48 C 864.29 1704.33 865.22 1703.4 866.36 1703.4 L 866.51 1703.4 L 866.51 1698.94 L 868.74 1698.94 L 868.74 1703.4 L 873.2 1703.4 L 873.2 1698.94 L 875.43 1698.94 L 875.43 1703.4 L 879.89 1703.4 L 879.89 1698.94 L 882.11 1698.94 L 882.11 1703.4 L 885.46 1703.4 L 885.46 1698.94 L 887.69 1698.94 L 887.69 1703.4 L 892.14 1703.4 L 892.14 1698.94 L 894.37 1698.94 L 894.37 1703.4 L 894.52 1703.4 C 895.67 1703.4 896.6 1704.33 896.6 1705.48 Z M 882.11 1747.83 C 882.11 1747.91 882.05 1747.97 881.98 1747.97 L 852.17 1747.97 C 852.09 1747.97 852.03 1747.91 852.03 1747.83 L 852.03 1718.02 C 852.03 1717.95 852.09 1717.89 852.17 1717.89 L 858.71 1717.89 L 858.71 1715.66 L 852.17 1715.66 C 850.86 1715.66 849.8 1716.72 849.8 1718.02 L 849.8 1747.83 C 849.8 1749.14 850.86 1750.2 852.17 1750.2 L 881.98 1750.2 C 883.28 1750.2 884.34 1749.14 884.34 1747.83 L 884.34 1742.4 L 882.11 1742.4 Z M 912.2 1690.17 L 912.2 1719.98 C 912.2 1721.28 911.14 1722.34 909.83 1722.34 L 903.29 1722.34 L 903.29 1720.11 L 909.83 1720.11 C 909.91 1720.11 909.97 1720.05 909.97 1719.98 L 909.97 1690.17 C 909.97 1690.09 909.91 1690.03 909.83 1690.03 L 880.02 1690.03 C 879.95 1690.03 879.89 1690.09 879.89 1690.17 L 879.89 1696.71 L 877.66 1696.71 L 877.66 1690.17 C 877.66 1688.86 878.72 1687.8 880.02 1687.8 L 909.83 1687.8 C 911.14 1687.8 912.2 1688.86 912.2 1690.17 Z" fill="#ffffff" stroke="none" pointer-events="all"/></g></g></g><g data-cell-id="-6ptDTptwhBMWIp2i-m9-75"><g/><g data-cell-id="-6ptDTptwhBMWIp2i-m9-60"><g><rect x="1440" y="0" width="387.5" height="291.16" fill="none" stroke="rgb(0, 0, 0)" stroke-dasharray="12 12" pointer-events="all"/></g></g><g data-cell-id="-6ptDTptwhBMWIp2i-m9-50"><g/><g data-cell-id="-6ptDTptwhBMWIp2i-m9-48"><g><path d="M 1687.49 33.23 C 1687.49 24.94 1706.59 18.23 1730.14 18.23 C 1741.45 18.23 1752.3 19.81 1760.3 22.62 C 1768.29 25.44 1772.79 29.25 1772.79 33.23 L 1772.79 114.11 C 1772.79 122.39 1753.69 129.11 1730.14 129.11 C 1706.59 129.11 1687.49 122.39 1687.49 114.11 Z" fill="rgb(255, 255, 255)" stroke="rgb(0, 0, 0)" stroke-miterlimit="10" pointer-events="all"/><path d="M 1772.79 33.23 C 1772.79 41.51 1753.69 48.23 1730.14 48.23 C 1706.59 48.23 1687.49 41.51 1687.49 33.23" fill="none" stroke="rgb(0, 0, 0)" stroke-miterlimit="10" pointer-events="all"/></g></g><g data-cell-id="-6ptDTptwhBMWIp2i-m9-34"><g><image x="1695.41" y="51.85" width="68.46" height="68.23" xlink:href="https://static-00.iconduck.com/assets.00/postgresql-plain-wordmark-icon-2048x2042-up54u54l.png" preserveAspectRatio="none"/></g></g></g><g data-cell-id="-6ptDTptwhBMWIp2i-m9-51"><g/><g data-cell-id="-6ptDTptwhBMWIp2i-m9-52"><g><path d="M 1487.5 105.14 C 1487.5 96.86 1506.59 90.14 1530.15 90.14 C 1541.46 90.14 1552.3 91.72 1560.3 94.53 C 1568.3 97.35 1572.79 101.16 1572.79 105.14 L 1572.79 186.02 C 1572.79 194.31 1553.7 201.02 1530.15 201.02 C 1506.59 201.02 1487.5 194.31 1487.5 186.02 Z" fill="rgb(255, 255, 255)" stroke="rgb(0, 0, 0)" stroke-miterlimit="10" pointer-events="all"/><path d="M 1572.79 105.14 C 1572.79 113.42 1553.7 120.14 1530.15 120.14 C 1506.59 120.14 1487.5 113.42 1487.5 105.14" fill="none" stroke="rgb(0, 0, 0)" stroke-miterlimit="10" pointer-events="all"/></g></g><g data-cell-id="-6ptDTptwhBMWIp2i-m9-53"><g><image x="1495.42" y="123.76" width="68.46" height="68.23" xlink:href="https://static-00.iconduck.com/assets.00/postgresql-plain-wordmark-icon-2048x2042-up54u54l.png" preserveAspectRatio="none"/></g></g></g><g data-cell-id="-6ptDTptwhBMWIp2i-m9-57"><g/><g data-cell-id="-6ptDTptwhBMWIp2i-m9-58"><g><path d="M 1687.5 180.58 C 1687.5 172.3 1706.59 165.58 1730.14 165.58 C 1741.46 165.58 1752.3 167.16 1760.3 169.97 C 1768.3 172.79 1772.79 176.6 1772.79 180.58 L 1772.79 261.46 C 1772.79 269.75 1753.7 276.46 1730.14 276.46 C 1706.59 276.46 1687.5 269.75 1687.5 261.46 Z" fill="rgb(255, 255, 255)" stroke="rgb(0, 0, 0)" stroke-miterlimit="10" pointer-events="all"/><path d="M 1772.79 180.58 C 1772.79 188.86 1753.7 195.58 1730.14 195.58 C 1706.59 195.58 1687.5 188.86 1687.5 180.58" fill="none" stroke="rgb(0, 0, 0)" stroke-miterlimit="10" pointer-events="all"/></g></g><g data-cell-id="-6ptDTptwhBMWIp2i-m9-59"><g><image x="1695.42" y="199.2" width="68.46" height="68.23" xlink:href="https://static-00.iconduck.com/assets.00/postgresql-plain-wordmark-icon-2048x2042-up54u54l.png" preserveAspectRatio="none"/></g></g></g></g><g data-cell-id="-6ptDTptwhBMWIp2i-m9-76"><g/><g data-cell-id="-6ptDTptwhBMWIp2i-m9-77"><g><rect x="1440" y="360" width="387.5" height="291.16" fill="none" stroke="rgb(0, 0, 0)" stroke-dasharray="12 12" pointer-events="all"/></g></g><g data-cell-id="-6ptDTptwhBMWIp2i-m9-78"><g/><g data-cell-id="-6ptDTptwhBMWIp2i-m9-79"><g><path d="M 1687.49 393.23 C 1687.49 384.94 1706.59 378.23 1730.14 378.23 C 1741.45 378.23 1752.3 379.81 1760.3 382.62 C 1768.29 385.44 1772.79 389.25 1772.79 393.23 L 1772.79 474.11 C 1772.79 482.39 1753.69 489.11 1730.14 489.11 C 1706.59 489.11 1687.49 482.39 1687.49 474.11 Z" fill="rgb(255, 255, 255)" stroke="rgb(0, 0, 0)" stroke-miterlimit="10" pointer-events="all"/><path d="M 1772.79 393.23 C 1772.79 401.51 1753.69 408.23 1730.14 408.23 C 1706.59 408.23 1687.49 401.51 1687.49 393.23" fill="none" stroke="rgb(0, 0, 0)" stroke-miterlimit="10" pointer-events="all"/></g></g><g data-cell-id="-6ptDTptwhBMWIp2i-m9-80"><g><image x="1695.41" y="411.85" width="68.46" height="68.23" xlink:href="https://static-00.iconduck.com/assets.00/postgresql-plain-wordmark-icon-2048x2042-up54u54l.png" preserveAspectRatio="none"/></g></g></g><g data-cell-id="-6ptDTptwhBMWIp2i-m9-81"><g/><g data-cell-id="-6ptDTptwhBMWIp2i-m9-82"><g><path d="M 1487.5 465.14 C 1487.5 456.86 1506.59 450.14 1530.15 450.14 C 1541.46 450.14 1552.3 451.72 1560.3 454.53 C 1568.3 457.35 1572.79 461.16 1572.79 465.14 L 1572.79 546.02 C 1572.79 554.31 1553.7 561.02 1530.15 561.02 C 1506.59 561.02 1487.5 554.31 1487.5 546.02 Z" fill="rgb(255, 255, 255)" stroke="rgb(0, 0, 0)" stroke-miterlimit="10" pointer-events="all"/><path d="M 1572.79 465.14 C 1572.79 473.42 1553.7 480.14 1530.15 480.14 C 1506.59 480.14 1487.5 473.42 1487.5 465.14" fill="none" stroke="rgb(0, 0, 0)" stroke-miterlimit="10" pointer-events="all"/></g></g><g data-cell-id="-6ptDTptwhBMWIp2i-m9-83"><g><image x="1495.42" y="483.76" width="68.46" height="68.23" xlink:href="https://static-00.iconduck.com/assets.00/postgresql-plain-wordmark-icon-2048x2042-up54u54l.png" preserveAspectRatio="none"/></g></g></g><g data-cell-id="-6ptDTptwhBMWIp2i-m9-84"><g/><g data-cell-id="-6ptDTptwhBMWIp2i-m9-85"><g><path d="M 1687.5 540.58 C 1687.5 532.3 1706.59 525.58 1730.14 525.58 C 1741.46 525.58 1752.3 527.16 1760.3 529.97 C 1768.3 532.79 1772.79 536.6 1772.79 540.58 L 1772.79 621.46 C 1772.79 629.75 1753.7 636.46 1730.14 636.46 C 1706.59 636.46 1687.5 629.75 1687.5 621.46 Z" fill="rgb(255, 255, 255)" stroke="rgb(0, 0, 0)" stroke-miterlimit="10" pointer-events="all"/><path d="M 1772.79 540.58 C 1772.79 548.86 1753.7 555.58 1730.14 555.58 C 1706.59 555.58 1687.5 548.86 1687.5 540.58" fill="none" stroke="rgb(0, 0, 0)" stroke-miterlimit="10" pointer-events="all"/></g></g><g data-cell-id="-6ptDTptwhBMWIp2i-m9-86"><g><image x="1695.42" y="559.2" width="68.46" height="68.23" xlink:href="https://static-00.iconduck.com/assets.00/postgresql-plain-wordmark-icon-2048x2042-up54u54l.png" preserveAspectRatio="none"/></g></g></g></g><g data-cell-id="-6ptDTptwhBMWIp2i-m9-104"><g/><g data-cell-id="-6ptDTptwhBMWIp2i-m9-102"><g><ellipse cx="2255" cy="775" rx="215" ry="215" fill="none" stroke="rgb(0, 0, 0)" stroke-dasharray="12 12" pointer-events="all"/></g></g><g data-cell-id="-6ptDTptwhBMWIp2i-m9-89"><g/><g data-cell-id="-6ptDTptwhBMWIp2i-m9-87"><g><ellipse cx="2163.32" cy="780.07" rx="51.51041666666667" ry="51.51041666666667" fill="none" stroke="rgb(0, 0, 0)" stroke-dasharray="12 12" pointer-events="all"/></g></g><g data-cell-id="-6ptDTptwhBMWIp2i-m9-88"><g><image x="2120.89" y="762.8" width="83.85" height="33.54" xlink:href="https://miro.medium.com/v2/resize:fit:1200/1*vbs-yP6PB4id55syTwETTg.png" preserveAspectRatio="none"/></g></g></g><g data-cell-id="-6ptDTptwhBMWIp2i-m9-91"><g/><g data-cell-id="-6ptDTptwhBMWIp2i-m9-92"><g><ellipse cx="2346.09" cy="671.23" rx="51.51041666666667" ry="51.51041666666667" fill="none" stroke="rgb(0, 0, 0)" stroke-dasharray="12 12" pointer-events="all"/></g></g><g data-cell-id="-6ptDTptwhBMWIp2i-m9-93"><g><image x="2303.67" y="653.96" width="83.85" height="33.54" xlink:href="https://miro.medium.com/v2/resize:fit:1200/1*vbs-yP6PB4id55syTwETTg.png" preserveAspectRatio="none"/></g></g></g><g data-cell-id="-6ptDTptwhBMWIp2i-m9-99"><g/><g data-cell-id="-6ptDTptwhBMWIp2i-m9-100"><g><ellipse cx="2339.57" cy="873.49" rx="51.51041666666667" ry="51.51041666666667" fill="none" stroke="rgb(0, 0, 0)" stroke-dasharray="12 12" pointer-events="all"/></g></g><g data-cell-id="-6ptDTptwhBMWIp2i-m9-101"><g><image x="2297.14" y="856.22" width="83.85" height="33.54" xlink:href="https://miro.medium.com/v2/resize:fit:1200/1*vbs-yP6PB4id55syTwETTg.png" preserveAspectRatio="none"/></g></g></g></g></g></g></g></svg>